<svg width="245" height="67" viewBox="0 0 245 67" fill="none" xmlns="http://www.w3.org/2000/svg">
<path d="M45.3776 55.5668C69.418 55.5668 88.9065 45.6749 88.9065 33.4726C88.9065 21.2703 69.418 11.3784 45.3776 11.3784C21.3372 11.3784 1.84863 21.2703 1.84863 33.4726C1.84863 45.6749 21.3372 55.5668 45.3776 55.5668Z" fill="#6181B6"/>
<path d="M54.1917 40.6129L56.3547 29.4835C56.8463 26.9722 56.4365 25.101 55.1424 23.9188C53.8969 22.7699 51.7839 22.2116 48.6709 22.2116H44.9364L46.0007 16.6964C46.0338 16.483 45.9851 16.2696 45.8539 16.1056C45.7228 15.9417 45.5267 15.8428 45.313 15.8428H40.1526C39.8084 15.8428 39.5299 16.0893 39.4643 16.4173L37.1708 28.2357C36.9578 26.9058 36.45 25.7568 35.6311 24.8213C34.124 23.0815 31.7155 22.2116 28.5207 22.2116H18.5108C18.1667 22.2116 17.8881 22.4582 17.8225 22.7861L13.1699 46.702C13.1374 46.9161 13.1861 47.1295 13.3173 47.2934C13.4485 47.4574 13.6446 47.5563 13.8582 47.5563H19.068C19.4121 47.5563 19.6907 47.3091 19.7563 46.9818L20.8868 41.1868H24.7531C26.7843 41.1868 28.4882 40.9734 29.8317 40.5303C31.1915 40.0866 32.4525 39.3319 33.5506 38.298C34.4512 37.477 35.1889 36.5583 35.746 35.557L34.8123 40.3338C34.7792 40.5466 34.8285 40.7606 34.9597 40.9239C35.0908 41.0885 35.2876 41.1868 35.5006 41.1868H40.661C41.0052 41.1868 41.2838 40.9402 41.3493 40.6123L43.889 27.4809H47.4279C48.9345 27.4809 49.3773 27.7763 49.4922 27.9077C49.6072 28.0229 49.8364 28.4497 49.5741 29.7464L47.5585 40.3501C47.5254 40.5641 47.5747 40.7769 47.7059 40.9408C47.8371 41.1048 48.0332 41.2037 48.2462 41.2037H53.4891C53.832 41.1874 54.1261 40.9577 54.1917 40.6129ZM30.2727 31.4204C29.9454 33.0944 29.3389 34.276 28.4538 34.9656C27.5532 35.6553 26.1272 35.9995 24.1947 35.9995H21.8843L23.5557 27.3983H26.537C28.7324 27.3983 29.6168 27.8746 29.961 28.2682C30.4532 28.8108 30.5681 29.8941 30.2727 31.4204Z" fill="white"/>
<path d="M76.2596 24.822C74.7524 23.0823 72.344 22.2124 69.1492 22.2124H59.1399C58.7958 22.2124 58.5172 22.459 58.4516 22.7869L53.8146 46.7197C53.7815 46.9325 53.8315 47.1465 53.962 47.3098C54.0932 47.4744 54.2899 47.5727 54.5023 47.5727H59.7127C60.0569 47.5727 60.3348 47.3267 60.401 46.9982L61.5315 41.2038H65.3978C67.429 41.2038 69.1329 40.9904 70.4764 40.5467C71.8368 40.1043 73.0979 39.3489 74.1953 38.3151C75.1128 37.4615 75.883 36.5096 76.4564 35.4752C77.0297 34.4413 77.4388 33.2923 77.6849 32.0608C78.2589 29.0074 77.7836 26.5787 76.2596 24.822ZM70.8699 31.4206C70.5433 33.0946 69.9368 34.2761 69.0523 34.9658C68.151 35.6554 66.7257 35.9996 64.7926 35.9996H62.4828L64.1536 27.3985H67.1354C69.3309 27.3985 70.2153 27.8747 70.5589 28.2684C71.0667 28.8109 71.1647 29.8942 70.8699 31.4206Z" fill="white"/>
<path d="M112.469 57.159C112.469 54.5133 111.711 53.1934 110.194 53.1446C109.577 53.0987 109.01 53.2393 108.439 53.4287C107.964 53.5693 107.682 53.7587 107.538 53.9021V60.1347C108.485 60.7488 109.338 61.0329 110.098 60.9841C111.663 60.8406 112.469 59.5666 112.469 57.159ZM114.318 57.2537C114.318 58.5766 114.033 59.6612 113.371 60.5594C112.659 61.5523 111.711 62.0716 110.433 62.0716C109.485 62.1175 108.537 61.7876 107.541 61.1735V66.8408L105.928 66.2726V53.664C106.213 53.334 106.544 53.0499 106.924 52.8146C107.872 52.2493 109.059 51.9652 110.384 51.9652C111.616 51.9652 112.61 52.4846 113.276 53.4775C113.984 54.5621 114.318 55.7415 114.318 57.2537ZM124.129 60.9841C124.129 62.7775 123.939 64.0057 123.607 64.6685C123.227 65.3285 122.565 65.8967 121.568 66.3214C120.716 66.6514 119.863 66.8408 118.912 66.8408L118.627 65.8479C119.624 65.7073 120.286 65.5638 120.667 65.4691C121.424 65.1851 121.994 64.8091 122.277 64.241C122.513 63.8163 122.608 62.9669 122.608 61.7388V61.3141C121.519 61.8335 120.332 62.0688 119.149 62.0688C118.342 62.0688 117.631 61.8335 117.063 61.3141C116.401 60.7947 116.067 60.0859 116.067 59.2366V52.5793L117.677 52.014V58.72C117.677 59.4288 117.913 59.9941 118.388 60.3729C118.863 60.7517 119.431 60.9382 120.188 60.9382C120.946 60.9382 121.706 60.6541 122.559 60.0888V52.2464H124.169L124.129 60.9841ZM130.385 62.0229H129.863C128.962 62.0229 128.253 61.7876 127.729 61.3629C127.208 60.9382 126.972 60.3241 126.972 59.5694V53.2422H125.883V52.2464H126.972V49.5548L128.582 48.9895V52.2464H130.382V53.2393H128.582V59.4719C128.582 60.0859 128.723 60.5106 129.057 60.7459C129.342 60.9353 129.768 61.0759 130.385 61.1247V62.0229ZM140.149 61.8794H138.539V55.6927C138.539 55.0786 138.398 54.5133 138.113 54.0887C137.781 53.5693 137.306 53.334 136.69 53.334C135.932 53.334 135.031 53.7128 133.942 54.5133V61.9282H132.332V47.1473L133.942 46.6279V53.334C134.985 52.5793 136.076 52.2005 137.306 52.2005C138.159 52.2005 138.824 52.4846 139.392 53.0499C139.913 53.6152 140.198 54.324 140.198 55.1762L140.149 61.8794ZM148.681 56.875C148.681 55.8821 148.491 55.0327 148.113 54.3727C147.638 53.5693 146.976 53.1446 145.979 53.0987C144.225 53.1934 143.323 54.4674 143.323 56.875C143.323 58.0084 143.513 58.9066 143.891 59.6612C144.366 60.6053 145.075 61.0788 146.025 61.0788C147.779 61.03 148.681 59.6612 148.681 56.875ZM150.435 56.875C150.435 58.2925 150.055 59.5206 149.346 60.4647C148.54 61.5035 147.402 62.0688 146.028 62.0688C144.605 62.0688 143.516 61.5494 142.71 60.4647C141.998 59.5206 141.621 58.3384 141.621 56.875C141.621 55.5062 142.001 54.3727 142.805 53.4746C143.657 52.4817 144.7 52.0111 146.028 52.0111C147.356 52.0111 148.445 52.4846 149.297 53.4746C150.055 54.4187 150.435 55.5521 150.435 56.875ZM159.678 61.8794H158.068V55.3627C158.068 54.6539 157.832 54.0887 157.405 53.7099C156.979 53.3311 156.409 53.0958 155.651 53.1446C154.894 53.1446 154.133 53.4287 153.471 53.8993V61.9741H151.861V53.7099C152.762 53.0499 153.615 52.5764 154.421 52.387C155.179 52.1977 155.795 52.103 156.366 52.103C156.746 52.103 157.123 52.1489 157.454 52.1977C158.071 52.3383 158.592 52.6223 158.972 53.0011C159.399 53.4258 159.635 53.994 159.635 54.6052L159.678 61.8794Z" fill="#656565"/>
<path d="M132.093 0.116077C130.575 0.116077 129.106 0.256683 127.827 0.494853C124.036 1.15484 123.371 2.52647 123.371 5.12337V8.52374H132.283V9.6572H120.053C117.492 9.6572 115.22 11.2153 114.508 14.1422C113.702 17.5426 113.655 19.6201 114.508 23.1611C115.124 25.8068 116.642 27.6462 119.249 27.6462H122.331V23.5858C122.331 20.6589 124.892 18.062 127.876 18.062H136.739C139.204 18.062 141.194 16.0304 141.194 13.5282V5.07459C141.194 2.66707 139.155 0.870759 136.739 0.446071C135.172 0.210771 133.608 0.0701656 132.093 0.116077ZM127.256 2.80768C128.158 2.80768 128.916 3.56236 128.916 4.50643C128.916 5.4505 128.158 6.20518 127.256 6.20518C126.355 6.20518 125.597 5.4505 125.597 4.50643C125.597 3.56236 126.309 2.80768 127.256 2.80768Z" fill="url(#paint0_linear_415_626)"/>
<path d="M142.283 9.55957V13.4794C142.283 16.5497 139.677 19.0978 136.69 19.0978H127.827C125.41 19.0978 123.371 21.1754 123.371 23.6317V32.0852C123.371 34.4928 125.456 35.9103 127.827 36.6191C130.624 37.4684 133.326 37.6119 136.739 36.6191C138.965 35.9591 141.195 34.6822 141.195 32.0852V28.6849H132.28V27.5514H145.648C148.208 27.5514 149.202 25.758 150.104 23.0664C151.051 20.2801 151.005 17.6373 150.104 14.0475C149.487 11.4965 148.254 9.56244 145.648 9.56244L142.283 9.55957ZM137.257 30.9518C138.159 30.9518 138.916 31.7065 138.916 32.6505C138.916 33.5946 138.159 34.3493 137.257 34.3493C136.356 34.3493 135.598 33.5946 135.598 32.6505C135.598 31.7065 136.359 30.9518 137.257 30.9518Z" fill="url(#paint1_linear_415_626)"/>
<path d="M162.757 50.8319H163.042V49.0844H163.705V48.8491H162.095V49.0844H162.757V50.8319ZM163.99 50.8319H164.226V49.2279L164.748 50.8319H165.033L165.554 49.2279V50.8319H165.839V48.8491H165.508L164.892 50.5479L164.37 48.8491H163.99V50.8319Z" fill="#656565"/>
<path opacity="0.444" d="M144.32 42.3324C144.32 43.6064 138.966 44.6452 132.375 44.6452C125.785 44.6452 120.431 43.6064 120.431 42.3324C120.431 41.0583 125.785 40.0195 132.375 40.0195C138.966 40.0195 144.32 41.0554 144.32 42.3324Z" fill="url(#paint2_radial_415_626)"/>
<path d="M180.576 1.67432H244.657V65.307H180.576V1.67432Z" fill="#F7DF1E"/>
<path d="M197.425 54.8503L202.329 51.9033C203.275 53.569 204.136 54.9783 206.2 54.9783C208.179 54.9783 209.426 54.2098 209.426 51.22V30.8879H215.448V51.3046C215.448 57.4981 211.792 60.3173 206.458 60.3173C201.641 60.3173 198.844 57.8398 197.425 54.8498L197.425 54.8503ZM218.719 54.2095L223.622 51.3906C224.913 53.4837 226.591 55.0213 229.559 55.0213C232.054 55.0213 233.645 53.7825 233.645 52.0739C233.645 50.0237 232.01 49.2974 229.257 48.1018L227.752 47.4605C223.408 45.6243 220.526 43.3177 220.526 38.4483C220.526 33.9632 223.967 30.5459 229.344 30.5459C233.172 30.5459 235.925 31.8703 237.904 35.33L233.215 38.3203C232.182 36.4836 231.064 35.7576 229.344 35.7576C227.58 35.7576 226.461 36.8681 226.461 38.3203C226.461 40.1142 227.58 40.8407 230.161 41.9513L231.666 42.5919C236.785 44.7705 239.667 46.9915 239.667 51.9886C239.667 57.371 235.408 60.318 229.688 60.318C224.096 60.318 220.482 57.6698 218.719 54.2098" fill="black"/>
<defs>
<linearGradient id="paint0_linear_415_626" x1="112.903" y1="1.12182" x2="133.373" y2="18.6285" gradientUnits="userSpaceOnUse">
<stop stop-color="#5CA0D5"/>
<stop offset="1" stop-color="#316A99"/>
</linearGradient>
<linearGradient id="paint1_linear_415_626" x1="141.18" y1="29.4051" x2="133.85" y2="19.0951" gradientUnits="userSpaceOnUse">
<stop stop-color="#FFD43E"/>
<stop offset="1" stop-color="#FFE975"/>
</linearGradient>
<radialGradient id="paint2_radial_415_626" cx="0" cy="0" r="1" gradientUnits="userSpaceOnUse" gradientTransform="translate(132.367 41.9439) rotate(-90) scale(2.30406 10.1679)">
<stop stop-color="#B8B8B8" stop-opacity="0.498"/>
<stop offset="1" stop-color="#7F8080" stop-opacity="0"/>
</radialGradient>
</defs>
</svg>
