<svg width="314" height="56" viewBox="0 0 314 56" fill="none" xmlns="http://www.w3.org/2000/svg">
<path d="M98.3757 28.4858C101.615 28.4858 104.239 25.8606 104.239 22.6222C104.239 19.384 101.615 16.7588 98.3757 16.7588C95.1374 16.7588 92.5127 19.384 92.5127 22.6222C92.5127 25.8606 95.1374 28.4858 98.3757 28.4858Z" fill="#DD4814"/>
<path d="M94.3891 21.8391C93.9566 21.8391 93.606 22.1897 93.606 22.6222C93.606 23.0547 93.9566 23.4048 94.3891 23.4048C94.4922 23.4049 94.5937 23.3846 94.6886 23.3453C94.7836 23.3059 94.8696 23.2483 94.9427 23.1756C95.0157 23.1029 95.0733 23.0166 95.1123 22.9216C95.1512 22.8266 95.1715 22.7248 95.1715 22.622C95.1715 22.1894 94.8225 21.839 94.3891 21.839V21.8391ZM99.9786 25.3971C99.8885 25.448 99.8098 25.5162 99.7465 25.5978C99.6832 25.6793 99.6361 25.7727 99.6093 25.8724C99.5817 25.9721 99.5744 26.0761 99.5882 26.1786C99.6012 26.2811 99.6345 26.3799 99.6864 26.4694C99.7376 26.559 99.8065 26.6373 99.8885 26.7C99.9713 26.7627 100.065 26.8086 100.164 26.835C100.264 26.8613 100.369 26.8676 100.471 26.8535C100.573 26.8394 100.672 26.8051 100.761 26.7527C100.941 26.649 101.072 26.478 101.125 26.2775C101.18 26.077 101.151 25.8634 101.047 25.6837C100.832 25.3095 100.353 25.1811 99.9786 25.3971ZM96.0894 22.6223C96.0894 21.8487 96.4733 21.1652 97.0617 20.7513L96.4896 19.7941C95.8046 20.252 95.2949 20.9514 95.0831 21.7707C95.2097 21.8738 95.3119 22.0038 95.3825 22.1513C95.4523 22.2988 95.4889 22.4601 95.4889 22.6235C95.4889 22.9673 95.3306 23.2741 95.0831 23.4773C95.2949 24.2969 95.8046 24.9965 96.4896 25.4543L97.0617 24.4955C96.4741 24.0819 96.0894 23.3984 96.0894 22.6249V22.6223ZM98.3757 20.3354C98.9471 20.3356 99.4981 20.5496 99.9193 20.9352C100.341 21.3208 100.603 21.8503 100.654 22.4193L101.769 22.4029C101.714 21.5405 101.337 20.7664 100.759 20.1973C100.461 20.3098 100.117 20.2925 99.8203 20.1212C99.5233 19.9499 99.3358 19.6597 99.2847 19.345C98.9949 19.2652 98.689 19.2215 98.3757 19.2215C97.8344 19.2215 97.3231 19.3485 96.8686 19.5733L97.4131 20.5481C97.7053 20.412 98.0316 20.3354 98.3757 20.3354ZM98.3757 24.9089C98.0316 24.9089 97.7053 24.8323 97.4131 24.6961L96.8686 25.6708C97.3377 25.903 97.853 26.0236 98.3757 26.0231C98.6833 26.0231 98.9885 25.9814 99.2847 25.8993C99.3107 25.7382 99.3715 25.5849 99.464 25.4505C99.5566 25.3161 99.6775 25.204 99.8187 25.1224C99.9599 25.0408 100.117 24.9916 100.281 24.9786C100.443 24.9656 100.606 24.9889 100.759 25.047C101.337 24.4779 101.715 23.7036 101.769 22.8414L100.653 22.825C100.551 23.9934 99.5704 24.9078 98.3757 24.9078V24.9089ZM99.9786 19.847C100.353 20.0633 100.832 19.9352 101.047 19.5607C101.099 19.4717 101.132 19.3734 101.146 19.2715C101.159 19.1696 101.152 19.066 101.125 18.9667C101.099 18.8674 101.053 18.7743 100.991 18.6927C100.928 18.6112 100.85 18.5428 100.761 18.4914C100.387 18.2753 99.908 18.4037 99.6913 18.7782C99.5882 18.9579 99.5598 19.1714 99.6134 19.3719C99.6678 19.5723 99.7984 19.7432 99.9786 19.847Z" fill="white"/>
<path d="M17.9923 38.0075C17.3965 38.1566 16.6103 38.3147 15.633 38.4822C14.6558 38.6498 13.5249 38.7336 12.2405 38.7336C11.1236 38.7336 10.1836 38.5706 9.42034 38.2453C8.65704 37.9199 8.04258 37.4587 7.57752 36.863C7.11245 36.2673 6.77701 35.5646 6.57236 34.7549C6.36771 33.9453 6.2655 33.0473 6.2655 32.0604V23.9076H8.86221V31.502C8.86221 33.2706 9.1414 34.5363 9.70002 35.2993C10.2586 36.0622 11.1981 36.4442 12.5201 36.4442C12.8089 36.4438 13.0975 36.4344 13.3857 36.4159C13.6832 36.3978 13.9624 36.3741 14.2234 36.3461L14.9354 36.2625C15.1491 36.2345 15.3028 36.2024 15.3959 36.1648V23.9074H17.9926V38.0075H17.9923ZM24.3304 24.5497C24.6467 24.3453 25.126 24.1309 25.7683 23.9076C26.4106 23.6844 27.1504 23.5713 27.9882 23.5713C29.0305 23.5713 29.9566 23.7573 30.7664 24.1295C31.5762 24.5016 32.2601 25.023 32.8185 25.6932C33.3768 26.3634 33.8001 27.1638 34.0888 28.0945C34.3776 29.0251 34.5217 30.0487 34.5217 31.1655C34.5217 32.3383 34.3493 33.3951 34.0052 34.3349C33.661 35.2747 33.1733 36.0718 32.5393 36.7233C31.9055 37.3747 31.1432 37.8776 30.2498 38.2311C29.3565 38.5847 28.3512 38.7615 27.2356 38.7615C26.0255 38.7615 24.9554 38.678 24.0249 38.5103C23.0943 38.3427 22.3309 38.174 21.7354 38.0077V17.2063L24.3321 16.7598V24.5497H24.3304ZM24.3304 36.1648C24.5908 36.2393 24.9586 36.3091 25.4333 36.3741C25.9081 36.439 26.4987 36.4719 27.2063 36.4719C28.6024 36.4719 29.7192 36.0112 30.5568 35.0899C31.3945 34.1685 31.8134 32.8609 31.8134 31.1667C31.8134 30.4229 31.7387 29.7246 31.5899 29.0727C31.4412 28.4208 31.1992 27.8582 30.8655 27.3836C30.5318 26.909 30.0976 26.5367 29.5671 26.2665C29.0366 25.9964 28.3987 25.8616 27.6544 25.8616C26.9468 25.8616 26.2955 25.983 25.7 26.2247C25.1046 26.4663 24.6481 26.7197 24.3304 26.9785V36.1647V36.1648ZM49.0126 38.0075C48.4165 38.1566 47.6304 38.3147 46.6532 38.4822C45.676 38.6498 44.5452 38.7334 43.2608 38.7334C42.1438 38.7334 41.2039 38.5705 40.4406 38.2451C39.6774 37.9198 39.0629 37.4586 38.5979 36.8629C38.1328 36.2672 37.7973 35.5645 37.5927 34.7548C37.388 33.9451 37.2855 33.0472 37.2855 32.0604V23.9078H39.8821V31.502C39.8821 33.2706 40.1613 34.5363 40.7198 35.2993C41.2783 36.0622 42.2178 36.4442 43.5399 36.4442C43.8287 36.4438 44.1173 36.4344 44.4054 36.4159C44.7029 36.3978 44.9821 36.3741 45.2431 36.3461L45.9551 36.2625C46.1688 36.2345 46.3225 36.2024 46.4156 36.1648V23.9074H49.0123V38.0075H49.0126ZM52.7538 24.3265C53.3493 24.1777 54.1402 24.0193 55.1272 23.8518C56.1143 23.6842 57.249 23.6008 58.5334 23.6008C59.6876 23.6008 60.6459 23.7638 61.4094 24.0893C62.1729 24.4147 62.7806 24.871 63.2382 25.4574C63.6958 26.0438 64.0151 26.7468 64.2016 27.5655C64.388 28.3842 64.4793 29.2872 64.4793 30.2735V38.4263H61.8824V30.8318C61.8824 29.9385 61.8217 29.1755 61.7011 28.5424C61.5805 27.9094 61.3803 27.3976 61.1009 27.0069C60.8214 26.6163 60.4492 26.3322 59.984 26.1552C59.5188 25.9783 58.9414 25.89 58.2532 25.89C57.9737 25.89 57.6849 25.8995 57.3864 25.918C57.0879 25.9363 56.8043 25.96 56.5348 25.9878C56.2919 26.0122 56.0498 26.0447 55.8091 26.0855L55.3483 26.1691V38.4261H52.7538V24.3265ZM70.4835 23.9076H75.9841V26.0855H70.4835V32.7864C70.4835 33.5108 70.5391 34.1128 70.6511 34.5872C70.7629 35.0615 70.9302 35.4345 71.1536 35.7041C71.3725 35.9709 71.6631 36.1694 71.9912 36.2765C72.3276 36.3881 72.7157 36.4442 73.1638 36.4442C73.9641 36.4442 74.5971 36.356 75.0626 36.1789C75.528 36.002 75.8444 35.8766 76.0119 35.8021L76.5702 37.924C76.3094 38.0545 75.8486 38.2221 75.1881 38.4265C74.5276 38.6309 73.7783 38.7336 72.9404 38.7336C71.9538 38.7336 71.1396 38.6081 70.4974 38.3568C69.8551 38.1054 69.3386 37.7286 68.9475 37.2261C68.5565 36.7237 68.2819 36.1048 68.1239 35.3693C67.966 34.6337 67.8864 33.7828 67.8864 32.8146V19.859L70.4832 19.4123V23.9076H70.4835ZM90.1122 38.0075C89.5157 38.1566 88.7292 38.3147 87.7529 38.4822C86.7757 38.6498 85.6436 38.7336 84.3596 38.7336C83.2429 38.7336 82.303 38.5706 81.5401 38.2453C80.7766 37.9199 80.1621 37.4587 79.6969 36.863C79.2317 36.2673 78.8965 35.5646 78.6918 34.7549C78.4871 33.9453 78.3845 33.0473 78.3845 32.0606V23.9079H80.9814V31.502C80.9814 33.2706 81.261 34.5363 81.8193 35.2993C82.3777 36.0622 83.3167 36.4442 84.6388 36.4442C84.9277 36.4438 85.2167 36.4344 85.5048 36.4159C85.7848 36.3991 86.064 36.3758 86.3423 36.3461L87.0541 36.2625C87.2684 36.2345 87.4218 36.2024 87.5151 36.1648V23.9074H90.1114V38.0075H90.1122Z" fill="#DD4814"/>
<g clip-path="url(#clip0_415_713)">
<path fill-rule="evenodd" clip-rule="evenodd" d="M162.715 15.6552L150.101 8.05956C148.607 7.16179 146.75 7.16179 145.256 8.05956L132.642 15.6552C131.116 16.5784 130.184 18.2496 130.189 20.0517V35.2431C130.179 37.0408 131.103 38.7109 132.62 39.6396L145.234 47.2353C146.728 48.1331 148.585 48.1331 150.079 47.2353L162.693 39.6396C164.211 38.7109 165.134 37.0408 165.125 35.2431V20.0517C165.139 18.2586 164.224 16.5895 162.715 15.6552ZM152.946 39.376V40.4662C152.945 40.6025 152.875 40.7286 152.761 40.8014L152.123 41.1722C152.021 41.2258 151.938 41.1722 151.938 41.0292V39.9569C151.486 40.1816 150.97 40.2324 150.484 40.0998C150.406 40.0472 150.377 39.9457 150.414 39.8586L150.643 38.8711C150.662 38.7879 150.707 38.713 150.771 38.6566C150.789 38.6388 150.81 38.6237 150.832 38.612C150.865 38.5978 150.901 38.5978 150.934 38.612C151.379 38.7329 151.853 38.672 152.255 38.4422C152.836 38.1539 153.215 37.5655 153.241 36.9097C153.241 36.3556 152.942 36.1233 152.22 36.1189C151.304 36.1189 150.458 35.9401 150.436 34.5684C150.457 33.3822 151 32.2679 151.916 31.5302V30.4266C151.915 30.2885 151.985 30.1599 152.101 30.087L152.717 29.6893C152.819 29.6357 152.902 29.6893 152.902 29.8368V30.9404C153.28 30.7659 153.702 30.7145 154.109 30.7929C154.197 30.8438 154.232 30.9548 154.188 31.0476L153.973 32.0261C153.954 32.1006 153.916 32.1686 153.863 32.2227C153.845 32.2422 153.824 32.2588 153.801 32.2718C153.771 32.2821 153.738 32.2821 153.708 32.2718C153.311 32.1834 152.895 32.2521 152.546 32.4639C152.026 32.692 151.683 33.2036 151.665 33.7776C151.665 34.278 151.925 34.4299 152.797 34.4478C153.964 34.4478 154.466 34.9839 154.479 36.1724C154.457 37.4168 153.897 38.5885 152.946 39.376ZM159.553 37.5396C159.569 37.6335 159.531 37.7283 159.456 37.7854L156.267 39.7513C156.237 39.7777 156.193 39.7811 156.159 39.7597C156.125 39.7383 156.108 39.697 156.118 39.6575V38.822C156.122 38.7304 156.179 38.6499 156.263 38.6165L159.403 36.7086C159.434 36.6823 159.478 36.6789 159.512 36.7003C159.546 36.7216 159.563 36.7629 159.553 36.8025V37.5396ZM161.755 18.8588L149.819 26.3383C148.331 27.2319 147.234 28.2104 147.234 30.0289V44.9432C147.234 46.0334 147.674 46.7304 148.335 46.9449C148.117 46.9864 147.896 47.0088 147.674 47.0119C146.973 47.0103 146.286 46.8174 145.683 46.4534L133.069 38.8577C131.823 38.0923 131.064 36.7205 131.069 35.2431V20.0517C131.063 18.5728 131.822 17.1988 133.069 16.4327L145.683 8.837C146.906 8.10263 148.425 8.10263 149.647 8.837L162.262 16.4327C163.301 17.0708 164.011 18.1416 164.2 19.3592C163.79 18.4567 162.848 18.2065 161.751 18.8588H161.755Z" fill="#1B1B1F"/>
<path fill-rule="evenodd" clip-rule="evenodd" d="M181.461 28.2373C181.141 27.8466 180.76 27.5116 180.333 27.2454L180.17 27.1471C180.511 26.9168 180.82 26.6403 181.086 26.325C181.675 25.6278 182 24.7408 182.003 23.8229C182.03 23.0314 181.846 22.2472 181.47 21.5531C181.115 20.9271 180.622 20.3933 180.029 19.9938C179.422 19.5814 178.748 19.2791 178.039 19.1001C177.318 18.9187 176.579 18.8227 175.836 18.8142H170.78C170.612 18.8094 170.45 18.8736 170.329 18.9923C170.209 19.111 170.141 19.274 170.141 19.4443V35.8329C170.145 36.0009 170.214 36.1604 170.334 36.2761C170.454 36.392 170.615 36.4544 170.78 36.4496H176.22C176.996 36.4429 177.767 36.3241 178.51 36.0965C179.231 35.8788 179.909 35.5357 180.514 35.0824C181.103 34.6382 181.589 34.0676 181.936 33.4113C182.302 32.7006 182.482 31.907 182.461 31.1058C182.464 30.5728 182.374 30.0434 182.196 29.5419C182.026 29.0678 181.777 28.6266 181.461 28.2373ZM178.378 24.6361C178.236 24.8828 178.044 25.0961 177.814 25.2616C177.558 25.4457 177.274 25.5847 176.973 25.6727C176.648 25.7698 176.312 25.8224 175.973 25.8291H173.586V21.8525H175.885C176.251 21.8584 176.616 21.9049 176.973 21.991C177.276 22.0597 177.566 22.1822 177.827 22.3529C178.049 22.5006 178.233 22.6996 178.365 22.9338C178.508 23.2083 178.576 23.5169 178.563 23.8274C178.567 24.1089 178.497 24.3865 178.36 24.6316L178.378 24.6361ZM173.603 28.7913H176.383C176.754 28.801 177.122 28.8657 177.475 28.9835C177.776 29.0786 178.057 29.2301 178.303 29.4303C178.53 29.6228 178.712 29.8639 178.836 30.1362C178.971 30.4469 179.034 30.7845 179.021 31.1237C179.028 31.4546 178.957 31.7825 178.814 32.0798C178.676 32.3549 178.481 32.5959 178.241 32.7858C177.976 32.9931 177.678 33.1532 177.36 33.2594C177.015 33.3762 176.654 33.4379 176.29 33.4425H173.603V28.7868V28.7913Z" fill="#1B1B1F"/>
<path fill-rule="evenodd" clip-rule="evenodd" d="M191.944 19.2698C191.859 19.0022 191.613 18.8213 191.336 18.823H189.53C189.253 18.8213 189.007 19.0022 188.922 19.2698L183.439 35.6452C183.377 35.8325 183.411 36.0388 183.531 36.1947C183.654 36.3564 183.845 36.4505 184.046 36.4494H186.205C186.482 36.4512 186.728 36.2703 186.812 36.0026L188.037 32.1958H192.763L193.965 36.0026C194.05 36.2718 194.299 36.4531 194.577 36.4494H196.722C196.923 36.4508 197.113 36.3586 197.238 36.1992C197.357 36.0433 197.392 35.8369 197.33 35.6496L191.944 19.2698ZM191.803 29.1665H189.015L190.42 24.7744L191.803 29.1665Z" fill="#1B1B1F"/>
<path fill-rule="evenodd" clip-rule="evenodd" d="M210.293 28.8673C210 28.4874 209.659 28.148 209.28 27.8575C208.902 27.5681 208.501 27.311 208.082 27.089C207.654 26.8648 207.212 26.6678 206.76 26.4992C206.32 26.3339 205.879 26.1864 205.439 26.0524C205.065 25.9407 204.664 25.8111 204.25 25.6681C203.875 25.5387 203.515 25.3695 203.175 25.1632C202.89 24.9933 202.64 24.7687 202.439 24.502C202.267 24.2573 202.178 23.9626 202.184 23.662C202.175 23.3634 202.243 23.0676 202.382 22.8042C202.52 22.5547 202.711 22.3395 202.942 22.1741C203.198 21.9893 203.484 21.8516 203.787 21.7675C204.5 21.5602 205.259 21.5758 205.963 21.8122C206.282 21.9232 206.575 22.0979 206.826 22.3261C207.066 22.5542 207.261 22.8273 207.399 23.1303C207.558 23.4828 207.664 23.858 207.712 24.2428C207.762 24.5568 208.032 24.7854 208.346 24.779H210.548C210.712 24.776 210.869 24.7107 210.989 24.5958C211.108 24.4792 211.173 24.3171 211.169 24.149C211.161 23.3473 210.967 22.5587 210.601 21.848C210.247 21.1721 209.76 20.5775 209.169 20.101C208.572 19.6199 207.897 19.2465 207.174 18.9974C205.706 18.502 204.123 18.4802 202.642 18.9348C201.933 19.1372 201.262 19.4606 200.66 19.891C200.078 20.316 199.589 20.8592 199.224 21.4861C198.845 22.1508 198.65 22.9073 198.66 23.6754C198.645 24.4339 198.844 25.1811 199.233 25.829C199.608 26.4315 200.092 26.9562 200.66 27.3749C201.226 27.7969 201.839 28.1479 202.488 28.4205C203.122 28.693 203.756 28.9254 204.373 29.1175C204.778 29.2425 205.2 29.3825 205.637 29.5375C206.022 29.6712 206.392 29.8481 206.738 30.0647C207.028 30.2432 207.278 30.4805 207.474 30.7617C207.651 31.0373 207.739 31.3623 207.725 31.691C207.736 31.9887 207.663 32.2835 207.513 32.54C207.361 32.7886 207.156 33.0006 206.914 33.161C206.644 33.3379 206.346 33.4663 206.034 33.5408C205.259 33.7337 204.448 33.7182 203.682 33.4961C203.329 33.3909 202.999 33.2196 202.708 32.9912C202.43 32.767 202.198 32.4891 202.025 32.1736C201.835 31.8171 201.713 31.4276 201.664 31.0253C201.614 30.7114 201.344 30.4828 201.03 30.4892H198.828C198.663 30.4934 198.506 30.5603 198.387 30.6768C198.268 30.7934 198.202 30.9556 198.207 31.1237C198.22 31.958 198.445 32.7749 198.859 33.4961C199.256 34.1772 199.787 34.7687 200.418 35.2342C201.066 35.7102 201.788 36.0728 202.554 36.3066C203.335 36.5494 204.147 36.6729 204.963 36.6729C205.707 36.6712 206.447 36.5705 207.165 36.3735C207.88 36.1893 208.56 35.8875 209.178 35.48C209.779 35.0752 210.288 34.5451 210.671 33.925C211.076 33.2532 211.284 32.4783 211.27 31.691C211.276 31.1693 211.191 30.6506 211.019 30.1585C210.847 29.6913 210.602 29.2552 210.293 28.8673Z" fill="#1B1B1F"/>
<path fill-rule="evenodd" clip-rule="evenodd" d="M224.444 18.8408H222.405C222.24 18.8336 222.079 18.8931 221.958 19.0062C221.836 19.1193 221.764 19.2769 221.757 19.444V25.8824H216.075V19.444C216.072 19.2761 216.002 19.1166 215.882 19.0008C215.763 18.885 215.602 18.8226 215.437 18.8274H213.406C213.24 18.8226 213.081 18.885 212.96 19.0008C212.84 19.1166 212.771 19.2761 212.767 19.444V35.8327C212.771 36.0007 212.84 36.1601 212.96 36.2759C213.081 36.3917 213.24 36.4541 213.406 36.4493H215.437C215.602 36.4541 215.763 36.3917 215.882 36.2759C216.002 36.1601 216.072 36.0007 216.075 35.8327V28.876H221.757V35.8327C221.761 36.0007 221.83 36.1601 221.95 36.2759C222.07 36.3917 222.231 36.4541 222.396 36.4493H224.444C224.609 36.4541 224.77 36.3917 224.89 36.2759C225.009 36.1601 225.079 36.0007 225.082 35.8327V19.444C225.068 19.0995 224.784 18.8307 224.444 18.8408Z" fill="#1B1B1F"/>
<path fill-rule="evenodd" clip-rule="evenodd" d="M172.093 39.2867H171.322V41.3822H170.908V39.2867H170.141V38.9561H172.093V39.2867Z" fill="#1B1B1F"/>
<path fill-rule="evenodd" clip-rule="evenodd" d="M174.471 41.3822H174.066V40.3009H173.211V41.3822H172.806V38.9561H173.207V39.9703H174.061V38.9561H174.467V41.3822H174.471Z" fill="#1B1B1F"/>
<path fill-rule="evenodd" clip-rule="evenodd" d="M176.845 40.292H175.81V41.0516H177.021V41.3822H175.396V38.9561H177.012V39.2867H175.814V39.9703H176.849V40.292H176.845Z" fill="#1B1B1F"/>
<path fill-rule="evenodd" clip-rule="evenodd" d="M180.426 41.3822V38.9561H181.227C181.342 38.9564 181.455 38.9699 181.567 38.9962C181.665 39.0179 181.759 39.0573 181.844 39.1124C181.921 39.1645 181.985 39.2351 182.029 39.3179C182.076 39.4088 182.099 39.5104 182.095 39.6129C182.097 39.725 182.059 39.8341 181.989 39.9211C181.917 40.0095 181.823 40.0773 181.716 40.1178C181.783 40.1345 181.847 40.1616 181.906 40.1982C181.958 40.2314 182.004 40.2738 182.042 40.3233C182.079 40.372 182.107 40.4263 182.126 40.4841C182.146 40.5446 182.156 40.608 182.157 40.6718C182.159 40.7769 182.136 40.8811 182.091 40.9756C182.048 41.0618 181.986 41.1367 181.91 41.1945C181.827 41.2561 181.732 41.3016 181.633 41.3286C181.521 41.3606 181.405 41.3771 181.289 41.3777H180.408L180.426 41.3822ZM180.84 39.9971H181.236C181.294 39.997 181.352 39.9895 181.408 39.9748C181.459 39.9616 181.507 39.9389 181.549 39.9077C181.587 39.8793 181.619 39.8427 181.641 39.8005C181.665 39.7552 181.677 39.7044 181.677 39.6531C181.679 39.5992 181.668 39.5456 181.646 39.4967C181.624 39.4537 181.592 39.4169 181.553 39.3894C181.511 39.3598 181.463 39.3386 181.412 39.3269C181.354 39.3207 181.295 39.3207 181.236 39.3269H180.84V39.9971ZM180.84 40.3009V41.0739H181.28C181.342 41.0729 181.403 41.0624 181.461 41.0426C181.512 41.0262 181.56 41.0005 181.602 40.9667C181.641 40.9353 181.672 40.8956 181.694 40.8505C181.718 40.8018 181.73 40.7483 181.73 40.6941C181.73 40.6375 181.719 40.5814 181.699 40.5288C181.68 40.4827 181.651 40.4414 181.615 40.4082C181.575 40.3737 181.529 40.3479 181.478 40.3322C181.422 40.3127 181.362 40.3022 181.302 40.3009H180.84Z" fill="#1B1B1F"/>
<path fill-rule="evenodd" clip-rule="evenodd" d="M184.663 40.3276C184.663 40.4667 184.644 40.6051 184.606 40.7387C184.57 40.8645 184.512 40.9826 184.434 41.0872C184.359 41.188 184.263 41.2704 184.152 41.3285C184.029 41.3901 183.893 41.4207 183.756 41.4178C183.491 41.4265 183.239 41.3029 183.082 41.0872C183.006 40.9823 182.949 40.8642 182.914 40.7387C182.876 40.6051 182.857 40.4667 182.857 40.3276V39.997C182.857 39.9025 182.866 39.8083 182.884 39.7155C182.9 39.6267 182.925 39.5398 182.958 39.4564C182.991 39.3772 183.032 39.3022 183.082 39.2329C183.13 39.166 183.188 39.1072 183.254 39.0587C183.322 39.0082 183.398 38.969 183.478 38.9425C183.568 38.9141 183.662 38.9006 183.756 38.9023C184.023 38.8937 184.277 39.017 184.438 39.2329C184.517 39.3372 184.575 39.4554 184.61 39.5814C184.648 39.715 184.668 39.8534 184.667 39.9925V40.3008L184.663 40.3276ZM184.245 40.0148C184.243 39.9234 184.235 39.8322 184.218 39.7423C184.205 39.658 184.178 39.5766 184.139 39.501C184.103 39.4333 184.052 39.3751 183.989 39.3312C183.919 39.2843 183.836 39.2609 183.751 39.2642C183.669 39.2612 183.587 39.2847 183.518 39.3312C183.456 39.3764 183.406 39.4362 183.373 39.5055C183.335 39.5813 183.31 39.6627 183.298 39.7467C183.283 39.8369 183.276 39.9281 183.276 40.0193V40.3321C183.276 40.4234 183.283 40.5145 183.298 40.6046C183.31 40.6884 183.336 40.7698 183.373 40.8459C183.406 40.915 183.456 40.9748 183.518 41.0201C183.587 41.067 183.668 41.0904 183.751 41.0872C183.836 41.0904 183.919 41.067 183.989 41.0201C184.052 40.9747 184.103 40.915 184.139 40.8459C184.178 40.7703 184.205 40.6888 184.218 40.6046C184.234 40.5147 184.243 40.4234 184.245 40.3321V39.997V40.0148Z" fill="#1B1B1F"/>
<path fill-rule="evenodd" clip-rule="evenodd" d="M187.121 38.9561V40.5824C187.121 40.6985 187.1 40.8136 187.059 40.922C187.022 41.0206 186.965 41.1103 186.892 41.1856C186.816 41.2606 186.726 41.3184 186.627 41.3554C186.516 41.3964 186.398 41.4161 186.279 41.4135C186.164 41.4158 186.049 41.3961 185.94 41.3554C185.735 41.28 185.574 41.1164 185.5 40.9086C185.458 40.7989 185.437 40.6822 185.438 40.5646V38.9561H185.848V40.5824C185.848 40.652 185.859 40.7212 185.878 40.788C185.895 40.8461 185.922 40.9007 185.958 40.9488C185.991 40.9942 186.035 41.031 186.086 41.0561C186.142 41.0817 186.204 41.0939 186.266 41.0918C186.33 41.0936 186.393 41.0813 186.451 41.0561C186.503 41.0313 186.548 40.9945 186.583 40.9488C186.62 40.9012 186.647 40.8465 186.662 40.788C186.682 40.7212 186.692 40.652 186.693 40.5824V38.9561H187.103H187.121Z" fill="#1B1B1F"/>
<path fill-rule="evenodd" clip-rule="evenodd" d="M188.856 40.4439H188.415V41.3822H188.001V38.9561H188.794C188.915 38.9565 189.035 38.9729 189.151 39.0052C189.253 39.0327 189.348 39.0797 189.433 39.1437C189.512 39.2033 189.575 39.2815 189.618 39.3716C189.664 39.4722 189.687 39.5823 189.684 39.6933C189.684 39.7692 189.672 39.8447 189.649 39.9167C189.628 39.9824 189.597 40.0442 189.556 40.0998C189.515 40.1547 189.466 40.2029 189.411 40.2428C189.353 40.2841 189.291 40.3186 189.226 40.3456L189.759 41.3643H189.318L188.856 40.4439ZM188.415 40.1222H188.799C188.863 40.1232 188.927 40.1142 188.988 40.0954C189.043 40.0786 189.094 40.0514 189.138 40.0149C189.179 39.9798 189.213 39.9355 189.235 39.8854C189.259 39.8306 189.271 39.7711 189.27 39.7112C189.272 39.65 189.261 39.5893 189.239 39.5324C189.219 39.481 189.187 39.4351 189.147 39.3984C189.103 39.3614 189.052 39.334 188.997 39.3179C188.933 39.2981 188.866 39.2875 188.799 39.2867H188.42V40.1178L188.415 40.1222Z" fill="#1B1B1F"/>
<path fill-rule="evenodd" clip-rule="evenodd" d="M192.173 41.3822H191.754L190.935 39.7112V41.3822H190.494V38.9561H190.935L191.75 40.6227V38.9561H192.19V41.3822H192.173Z" fill="#1B1B1F"/>
<path fill-rule="evenodd" clip-rule="evenodd" d="M194.547 40.292H193.511V41.0516H194.723V41.3822H193.097V38.9561H194.714V39.2867H193.516V39.9703H194.551V40.292H194.547Z" fill="#1B1B1F"/>
<path fill-rule="evenodd" clip-rule="evenodd" d="M197.136 40.4799H195.753V40.1582H197.136V40.4799Z" fill="#1B1B1F"/>
<path fill-rule="evenodd" clip-rule="evenodd" d="M199.339 40.8192H198.555L198.383 41.3822H197.942L198.757 38.9561H199.123L199.924 41.3822H199.484L199.339 40.8192ZM198.66 40.4797H199.237L198.951 39.528L198.66 40.4797Z" fill="#1B1B1F"/>
<path fill-rule="evenodd" clip-rule="evenodd" d="M202.347 41.0785C202.302 41.1288 202.252 41.1737 202.197 41.2125C202.137 41.2555 202.072 41.2914 202.003 41.3197C201.928 41.3514 201.85 41.3753 201.77 41.3913C201.681 41.409 201.591 41.418 201.501 41.418C201.363 41.4222 201.226 41.3947 201.1 41.3376C200.986 41.2831 200.886 41.2039 200.805 41.1052C200.722 41.0023 200.659 40.8839 200.62 40.7567C200.575 40.6123 200.553 40.4615 200.554 40.31V40.0195C200.551 39.8682 200.572 39.7173 200.616 39.5727C200.654 39.4462 200.715 39.3279 200.797 39.2242C200.874 39.1263 200.972 39.0469 201.083 38.9919C201.204 38.9329 201.336 38.9039 201.47 38.907C201.588 38.9061 201.706 38.9242 201.818 38.9606C201.915 38.9915 202.005 39.0416 202.083 39.1081C202.157 39.1734 202.217 39.2542 202.259 39.3448C202.304 39.4435 202.332 39.5493 202.342 39.6576H201.937C201.928 39.5978 201.912 39.5393 201.889 39.4834C201.869 39.4332 201.839 39.3876 201.801 39.3493C201.763 39.3118 201.718 39.2828 201.669 39.2644C201.609 39.243 201.547 39.2325 201.484 39.2331C201.404 39.2309 201.326 39.2528 201.259 39.2957C201.195 39.3395 201.143 39.3976 201.105 39.4655C201.061 39.5417 201.03 39.6247 201.012 39.7112C200.993 39.8068 200.982 39.904 200.981 40.0016V40.3055C200.982 40.4031 200.992 40.5004 201.012 40.5959C201.031 40.6828 201.063 40.7659 201.109 40.8416C201.151 40.9109 201.208 40.9691 201.277 41.0114C201.351 41.0561 201.437 41.0794 201.523 41.0785H201.642L201.761 41.0561L201.862 41.0159C201.891 41.0004 201.917 40.9791 201.937 40.9533V40.444H201.497V40.1312H202.378V41.0561L202.347 41.0785Z" fill="#1B1B1F"/>
<path fill-rule="evenodd" clip-rule="evenodd" d="M204.408 40.8192H203.624L203.452 41.3822H203.012L203.827 38.9561H204.183L204.985 41.3822H204.544L204.408 40.8192ZM203.743 40.4752H204.32L204.034 39.5235L203.743 40.4752Z" fill="#1B1B1F"/>
<path fill-rule="evenodd" clip-rule="evenodd" d="M205.773 38.9561H207.267V39.2867H206.72V41.0516H207.267V41.3822H205.769V41.0516H206.302V39.2867H205.769V38.9561H205.773Z" fill="#1B1B1F"/>
<path fill-rule="evenodd" clip-rule="evenodd" d="M209.874 41.3822H209.469L208.65 39.7112V41.3822H208.209V38.9561H208.65L209.469 40.6227V38.9561H209.909V41.3822H209.874Z" fill="#1B1B1F"/>
<path fill-rule="evenodd" clip-rule="evenodd" d="M214.613 40.7564C214.615 40.7034 214.602 40.651 214.578 40.6044C214.551 40.5586 214.516 40.519 214.473 40.4883C214.422 40.4516 214.367 40.4216 214.309 40.3989L214.107 40.3319C214.008 40.304 213.911 40.2696 213.816 40.2292C213.725 40.1899 213.639 40.1388 213.56 40.0772C213.486 40.0198 213.423 39.9485 213.375 39.8672C213.327 39.7833 213.303 39.6873 213.305 39.5902C213.304 39.4917 213.328 39.3946 213.375 39.3087C213.423 39.2258 213.488 39.1541 213.565 39.0987C213.648 39.0384 213.74 38.993 213.838 38.9647C213.944 38.934 214.054 38.919 214.164 38.92C214.279 38.9191 214.394 38.9372 214.503 38.9736C214.604 39.0069 214.698 39.0583 214.78 39.1255C214.859 39.1887 214.924 39.2678 214.97 39.3578C215.016 39.4507 215.041 39.5532 215.041 39.6572H214.627C214.622 39.6003 214.608 39.5446 214.587 39.4919C214.567 39.443 214.537 39.3989 214.499 39.3623C214.458 39.3244 214.41 39.2955 214.357 39.2774C214.296 39.2556 214.23 39.2451 214.164 39.2461C214.106 39.2455 214.048 39.253 213.992 39.2685C213.943 39.282 213.896 39.3047 213.856 39.3355C213.818 39.3639 213.786 39.4005 213.763 39.4427C213.741 39.4871 213.731 39.5362 213.732 39.5857C213.731 39.6385 213.746 39.6902 213.776 39.7332C213.81 39.776 213.849 39.8123 213.896 39.8404C213.947 39.8736 214.004 39.9005 214.063 39.9208L214.243 39.9968C214.346 40.0265 214.446 40.0638 214.542 40.1085C214.633 40.1488 214.718 40.2014 214.794 40.2649C214.864 40.3244 214.922 40.3972 214.965 40.4794C215.01 40.5647 215.033 40.6599 215.032 40.7564C215.034 40.8563 215.01 40.9552 214.961 41.0423C214.914 41.1243 214.849 41.1945 214.772 41.2479C214.687 41.3055 214.594 41.3479 214.494 41.3729C214.387 41.4009 214.275 41.4145 214.164 41.4132C214.088 41.4203 214.011 41.4203 213.935 41.4132C213.859 41.3988 213.785 41.3763 213.715 41.3461C213.646 41.3181 213.581 41.282 213.521 41.2389C213.461 41.1975 213.408 41.1479 213.362 41.0915C213.269 40.9737 213.218 40.8271 213.217 40.6759H213.631C213.634 40.7426 213.651 40.8079 213.68 40.868C213.706 40.9205 213.744 40.9662 213.789 41.0021C213.839 41.0391 213.894 41.0665 213.952 41.0825C214.018 41.1011 214.087 41.1101 214.155 41.1093C214.214 41.1169 214.273 41.1169 214.331 41.1093C214.382 41.097 214.43 41.0759 214.473 41.0468C214.522 41.0068 214.559 40.9522 214.578 40.8904C214.6 40.8493 214.612 40.8033 214.613 40.7564Z" fill="#1B1B1F"/>
<path fill-rule="evenodd" clip-rule="evenodd" d="M217.463 41.3822H217.057V40.3009H216.203V41.3822H215.803V38.9561H216.203V39.9703H217.057V38.9561H217.463V41.3822Z" fill="#1B1B1F"/>
<path fill-rule="evenodd" clip-rule="evenodd" d="M219.837 40.292H218.802V41.0516H220.013V41.3822H218.388V38.9561H220.004V39.2867H218.806V39.9703H219.841V40.292H219.837Z" fill="#1B1B1F"/>
<path fill-rule="evenodd" clip-rule="evenodd" d="M221.361 41.0561H222.559V41.3822H220.921V38.9561H221.361V41.0561Z" fill="#1B1B1F"/>
<path fill-rule="evenodd" clip-rule="evenodd" d="M223.876 41.0561H225.073V41.3822H223.462V38.9561H223.876V41.0561Z" fill="#1B1B1F"/>
</g>
<g clip-path="url(#clip1_415_713)">
<path d="M263.88 22.4017C263.88 23.2485 263.971 23.9355 264.131 24.4389C264.335 25.0055 264.58 25.5563 264.864 26.0869C264.978 26.27 265.024 26.4534 265.024 26.6135C265.024 26.8425 264.887 27.0713 264.589 27.3003L263.148 28.2617C262.942 28.3991 262.736 28.4677 262.553 28.4677C262.324 28.4677 262.095 28.3532 261.866 28.1471C261.558 27.8157 261.282 27.4554 261.042 27.0713C260.814 26.6824 260.585 26.2473 260.333 25.7208C258.548 27.8269 256.306 28.8797 253.605 28.8797C251.683 28.8797 250.15 28.3305 249.029 27.2317C247.908 26.1326 247.335 24.6679 247.335 22.8364C247.335 20.8907 248.022 19.3113 249.418 18.1209C250.814 16.9306 252.667 16.3354 255.024 16.3354C255.802 16.3354 256.603 16.404 257.45 16.5185C258.296 16.633 259.166 16.8161 260.081 17.0221V15.3511C260.081 13.6114 259.715 12.3981 259.006 11.6885C258.274 10.9788 257.038 10.6353 255.276 10.6353C254.475 10.6353 253.651 10.7271 252.805 10.9331C251.958 11.1392 251.134 11.3909 250.333 11.7114C249.967 11.8715 249.693 11.9631 249.532 12.009C249.372 12.0549 249.258 12.0776 249.166 12.0776C248.846 12.0776 248.686 11.8486 248.686 11.3679V10.2464C248.686 9.87996 248.732 9.60533 248.846 9.44519C248.96 9.28478 249.166 9.12465 249.487 8.96451C250.287 8.55242 251.249 8.20893 252.37 7.93429C253.491 7.6367 254.681 7.49952 255.939 7.49952C258.663 7.49952 260.653 8.11738 261.935 9.35364C263.193 10.5896 263.834 12.4667 263.834 14.9849V22.4017H263.88ZM254.589 25.8809C255.344 25.8809 256.123 25.7437 256.946 25.4691C257.77 25.1942 258.502 24.6906 259.12 24.0038C259.486 23.569 259.761 23.0884 259.898 22.5389C260.036 21.9896 260.127 21.3258 260.127 20.5472V19.5859C259.433 19.417 258.73 19.2872 258.022 19.1971C257.308 19.1063 256.59 19.0603 255.871 19.0593C254.338 19.0593 253.216 19.3569 252.461 19.975C251.706 20.5931 251.34 21.463 251.34 22.6077C251.34 23.6835 251.615 24.4845 252.187 25.0341C252.736 25.6065 253.537 25.8809 254.589 25.8809H254.589ZM272.964 28.3532C272.552 28.3532 272.278 28.2846 272.095 28.1245C271.912 27.987 271.752 27.6665 271.614 27.2317L266.237 9.53674C266.099 9.07901 266.031 8.78142 266.031 8.62129C266.031 8.25483 266.214 8.04879 266.58 8.04879H268.822C269.257 8.04879 269.554 8.11738 269.715 8.27779C269.898 8.41497 270.035 8.73552 270.172 9.17056L274.017 24.3244L277.586 9.17056C277.701 8.71256 277.838 8.41497 278.021 8.27779C278.204 8.14034 278.524 8.04879 278.936 8.04879H280.767C281.202 8.04879 281.499 8.11738 281.682 8.27779C281.866 8.41497 282.026 8.73552 282.117 9.17056L285.733 24.5075L289.691 9.17056C289.829 8.71256 289.989 8.41497 290.149 8.27779C290.332 8.14034 290.63 8.04879 291.042 8.04879H293.17C293.536 8.04879 293.742 8.23188 293.742 8.62129C293.742 8.73552 293.719 8.85001 293.696 8.98719C293.673 9.12492 293.627 9.30774 293.536 9.55969L288.021 27.2546C287.884 27.7124 287.723 28.01 287.54 28.1471C287.357 28.2849 287.06 28.3762 286.671 28.3762H284.703C284.268 28.3762 283.971 28.3076 283.788 28.1471C283.605 27.987 283.444 27.6894 283.353 27.2317L279.806 12.4667L276.282 27.2087C276.168 27.6665 276.03 27.9641 275.847 28.1242C275.664 28.2846 275.344 28.3532 274.932 28.3532H272.964ZM302.369 28.9715C301.179 28.9715 299.989 28.8339 298.845 28.5592C297.701 28.2846 296.808 27.987 296.213 27.6438C295.847 27.4377 295.596 27.2087 295.504 27.0027C295.415 26.8007 295.368 26.5826 295.367 26.3618V25.1942C295.367 24.7135 295.55 24.4848 295.893 24.4848C296.033 24.4852 296.172 24.5084 296.305 24.5534C296.442 24.5993 296.648 24.6906 296.877 24.7824C297.685 25.1379 298.529 25.4064 299.394 25.5834C300.29 25.7654 301.202 25.8575 302.117 25.8582C303.558 25.8582 304.68 25.6063 305.458 25.1027C306.236 24.599 306.648 23.8666 306.648 22.928C306.648 22.2872 306.442 21.7606 306.03 21.3258C305.618 20.8907 304.84 20.5016 303.719 20.1354L300.401 19.1052C298.73 18.5786 297.495 17.8003 296.74 16.7704C295.985 15.7632 295.596 14.6414 295.596 13.451C295.596 12.4897 295.801 11.6428 296.213 10.9102C296.625 10.1776 297.174 9.53674 297.861 9.0331C298.547 8.50652 299.325 8.11766 300.241 7.84275C301.156 7.56811 302.117 7.45361 303.124 7.45361C303.627 7.45361 304.154 7.47657 304.657 7.54543C305.184 7.61375 305.664 7.7053 306.145 7.79711C306.602 7.91134 307.037 8.02583 307.449 8.16329C307.861 8.30047 308.181 8.43793 308.41 8.57538C308.73 8.75847 308.959 8.94156 309.096 9.1476C309.233 9.33069 309.302 9.58237 309.302 9.90292V10.9788C309.302 11.4595 309.119 11.7114 308.776 11.7114C308.593 11.7114 308.295 11.6196 307.906 11.4368C306.602 10.8416 305.138 10.544 303.513 10.544C302.209 10.544 301.179 10.75 300.469 11.1848C299.76 11.6196 299.394 12.2839 299.394 13.2223C299.394 13.8631 299.623 14.4126 300.08 14.8474C300.538 15.2822 301.385 15.7172 302.598 16.1064L305.847 17.1366C307.494 17.6632 308.684 18.3955 309.394 19.3343C310.103 20.2726 310.447 21.3488 310.447 22.5389C310.447 23.5231 310.24 24.4159 309.851 25.1942C309.439 25.9725 308.89 26.6594 308.181 27.2087C307.472 27.7812 306.625 28.1931 305.641 28.4906C304.611 28.8111 303.536 28.9713 302.369 28.9713V28.9715Z" fill="#252F3E"/>
<path d="M306.694 40.0966C299.165 45.6589 288.227 48.6118 278.822 48.6118C265.642 48.6118 253.766 43.7362 244.796 35.6328C244.086 34.9916 244.727 34.1218 245.574 34.6255C255.276 40.2567 267.244 43.6674 279.623 43.6674C287.975 43.6674 297.152 41.9278 305.595 38.3567C306.854 37.7842 307.929 39.1808 306.694 40.0963L306.694 40.0966ZM309.828 36.5255C308.868 35.2892 303.467 35.9303 301.019 36.2279C300.286 36.3194 300.172 35.6784 300.835 35.1977C305.138 32.1759 312.208 33.046 313.032 34.0532C313.856 35.0832 312.803 42.1567 308.776 45.5444C308.158 46.071 307.563 45.7964 307.838 45.1097C308.753 42.8434 310.79 37.7385 309.828 36.5255Z" fill="#FF9900"/>
</g>
<defs>
<clipPath id="clip0_415_713">
<rect width="94.9565" height="41.3913" fill="white" transform="translate(130.188 7.30444)"/>
</clipPath>
<clipPath id="clip1_415_713">
<rect width="69.7971" height="42.3013" fill="white" transform="translate(244.145 6.84937)"/>
</clipPath>
</defs>
</svg>
