<svg id="Layer_1" data-name="Layer 1" xmlns="http://www.w3.org/2000/svg" viewBox="0 0 221 95"><defs><style>.cls-1{fill:#e7332b;}.cls-2{fill:#fff;}.cls-3{fill:#f28c84;}.cls-4{fill:none;stroke:#e7332b;stroke-width:12px;}.cls-5{fill:#eda908;}.cls-6{fill:#fec927;}.cls-7{fill:#febf16;}.cls-8{fill:#feb90d;}.cls-9{fill:#fec725;}.cls-10{fill:#fec826;}.cls-11{fill:#fec41f;}.cls-12{fill:#feb404;}.cls-13{fill:#feb607;}.cls-14{fill:#feb302;}.cls-15{fill:#febd12;}.cls-16{fill:#fec21c;}</style></defs><path class="cls-1" d="M85.5,22h109A26.49,26.49,0,0,1,221,48.5h0A26.49,26.49,0,0,1,194.5,75H85.5A26.49,26.49,0,0,1,59,48.5h0A26.49,26.49,0,0,1,85.5,22Z"/><path class="cls-2" d="M109.32,54h7.42V52.32h-5.29V49h4v-1.6h-4V44.24h5V42.56h-7.15Zm9.18,0h1.94V49.07a1.85,1.85,0,0,1,2-2c1.15,0,1.66.58,1.66,1.84V54H126V48.74c0-2.31-1.19-3.28-2.87-3.28a2.87,2.87,0,0,0-2.7,1.5V45.63H118.5Zm9.74,0h1.93V49.65c0-1.78,1-2.32,2.72-2.34V45.5a2.8,2.8,0,0,0-2.72,1.7V45.63h-1.93Zm9.94-1.34c-1.47,0-2.31-1.08-2.31-2.79v-.13c0-1.72.87-2.76,2.31-2.76s2.31,1.05,2.31,2.78v.11C140.49,51.58,139.62,52.66,138.18,52.66Zm0,1.5a4.12,4.12,0,0,0,4.3-4.3v-.13a4.3,4.3,0,0,0-8.59.05v.12A4.1,4.1,0,0,0,138.17,54.16Zm6.1-.16h1.94V41.76h-1.94Zm4.34,0h1.94V41.76h-1.94Zm8.27,0h1.94V45.23L164,54h2.21V42.56h-1.94v8.27l-4.81-8.27h-2.55Zm15.43-1.34c-1.47,0-2.32-1.08-2.32-2.79v-.13c0-1.72.88-2.76,2.32-2.76s2.3,1.05,2.3,2.78v.11C174.61,51.58,173.75,52.66,172.31,52.66Zm0,1.5a4.12,4.12,0,0,0,4.31-4.3v-.13a4.3,4.3,0,0,0-8.59.05v.12A4.1,4.1,0,0,0,172.29,54.16Zm7.55-.16h2l1.7-5.63L185.07,54h2l2.62-8.37h-1.88l-1.75,6-1.63-6h-1.61l-1.78,6-1.66-6h-2.07Z"/><path class="cls-3" d="M45.18,12H49a4.89,4.89,0,0,1,1,.12,8.27,8.27,0,0,0,1,.12c.77,0,1.54,0,2.31.08a31,31,0,0,1,15.77,6.74,35.05,35.05,0,0,1,12.8,18.83,40.31,40.31,0,0,1,.84,13.63,32.5,32.5,0,0,1-9.9,21C66.41,79,58.55,82.85,49.16,82.8c-3.85,0-7.72.2-11.48-1-13.25-4.18-21.59-13-25.12-26.44a9.47,9.47,0,0,1-.26-1.58c-.24-2.86-.27-5.74-.27-8.61h0a33.1,33.1,0,0,1,1.5-9A35.82,35.82,0,0,1,35.68,13.75,39.31,39.31,0,0,1,45.18,12Z"/><path class="cls-4" d="M47.5,6h0A41.5,41.5,0,0,1,89,47.5h0A41.5,41.5,0,0,1,47.5,89h0A41.5,41.5,0,0,1,6,47.5H6A41.5,41.5,0,0,1,47.5,6Z"/><path class="cls-5" d="M52.83,64.71c-4.6-.26-9.2-.29-13.74-1.2-2.39-.47-4.52-1.71-6.93-2.22a3.35,3.35,0,0,1-2.47-3.51c0-3.52-.05-7,0-10.57A3.23,3.23,0,0,1,32.22,44a27.88,27.88,0,0,0,6.18-2.83,10.31,10.31,0,0,0,5.38-9.08c0-.68,0-1.37.06-2,0-3.05,1.84-4.26,4.77-3.19a5.44,5.44,0,0,1,3.72,6.45c-.41,2.11-1,4.18-1.52,6.28-.27,1.15-.33,1.94,1.42,1.44a23.13,23.13,0,0,1,8.46-.41,3.36,3.36,0,0,1,2.52,4.91c-.37.84-.55,1.19.46,1.76a3.44,3.44,0,0,1,.72,5.32,1.42,1.42,0,0,0-.29,1.88,3.34,3.34,0,0,1-.9,4.17,1.54,1.54,0,0,0-.45,1.75,3.34,3.34,0,0,1-3.46,4.42c-1.08,0-2.16-.08-3.24-.1S53.9,64.71,52.83,64.71Zm1.39-23.08-1.7.34a2.66,2.66,0,0,0-1.6.45c-1.09.57-2.17,1.2-1.72,2.69.4,1.3,2.09,1.85,3.66,1.29h1l1.37,0c1.69,0,3.38,0,5.08,0,1.45,0,2.07-.88,2.09-2.3s-.52-2.42-2.09-2.46-3.16,0-4.74,0ZM51.83,62.78a5.13,5.13,0,0,0,2.73.67,9.81,9.81,0,0,1,1.34.17,12.27,12.27,0,0,0,3.87.13A2.44,2.44,0,0,0,62,61.19c-.15-1.43-1.18-1.54-2.36-1.5-1.92.05-3.84,0-5.76,0-.48-.55-1.13-.25-1.7-.33-1.33,0-2.91,0-3,1.67C49.14,62.48,50.7,62.54,51.83,62.78Zm1.37-9.21a8.28,8.28,0,0,0-3.08.85c-1.29.7-1.4,1.64-.36,2.7.86.88,2,.89,3.1,1.21,1.15,0,2.24.56,3.41.33,1.59,0,3.17.07,4.75,0a2.76,2.76,0,0,0,2.39-2.83c0-1.3-.9-1.71-2.09-2a31.48,31.48,0,0,0-5.73-.27Zm2.74-6.14a8.86,8.86,0,0,0-4.91.91c-.92.51-1.84,1.11-1.53,2.33a2.5,2.5,0,0,0,2.37,1.84c1,.09,2,0,3.05,0,2.3.14,4.61-.14,6.93.26,1.25.22,2-.82,2.25-2.05.28-1.64-.43-2.81-1.75-2.95A38.17,38.17,0,0,0,55.94,47.43ZM30.68,56c.08,1-.24,2,.31,3s1.28,1.88,2.34,1.61c.81-.21.76-1.38.76-2.23v-.68c0-.3-.1-.75.31-.82s.31.34.37.59c.1.42.23.84.35,1.26.5,1.08,0,2.59,1.72,3.15a43.26,43.26,0,0,0,12.89,1.64c-1.17-.95-1.8-1.84-1.66-3.09.38-1,2.9-1.75.35-3.07-.11-.26-.33-.53-.3-.77.3-2.22-.85-1.72-2.21-1.33-1.15.33-2.32,1.24-3.63.4,1.56-.77,3.44-1,4.44-2.73,2.17-2,1.85-4.59,1.53-7.13-.17-1.31-.56-2.59.85-3.51a1.09,1.09,0,0,0,.34-.72,70.54,70.54,0,0,1,1.93-8.25,4.72,4.72,0,0,0-3-5.45c-2.21-1-3.24-.14-3.35,2.19-.12,2.71-.22,5.43-1.77,7.84-2.64,4.1-6.8,5.78-11.15,7.21-1.58.83-1.38,2.31-1.36,3.72V56Z"/><path class="cls-6" d="M32.05,45.06C36.4,43.63,40.56,42,43.2,37.85,44.75,35.44,44.85,32.72,45,30c.11-2.33,1.14-3.15,3.35-2.19a4.72,4.72,0,0,1,3,5.45,70.54,70.54,0,0,0-1.93,8.25,1.09,1.09,0,0,1-.34.72c-1.41.92-1,2.2-.85,3.51.32,2.54.64,5.12-1.53,7.13a11.5,11.5,0,0,1-9-1.26C35.18,50,32.93,48.13,32.05,45.06Z"/><path class="cls-7" d="M42.28,55.61c1.31.84,2.48-.07,3.63-.4,1.36-.39,2.51-.89,2.21,1.33,0,.24.19.51.3.77-5,2.08-9.41.86-13.73-1.89-1.4-.89-2.1-2.72-4-2.89V48.78c1.4.4,2.14,1.62,3,2.58A14.41,14.41,0,0,0,42.28,55.61Z"/><path class="cls-8" d="M30.69,52.53c1.9.17,2.6,2,4,2.89,4.32,2.75,8.78,4,13.73,1.89,2.55,1.32,0,2.08-.35,3.07l-3.17.34c-3.48.38-6.64-.81-9.78-2-.12-.42-.25-.84-.35-1.26-.06-.25,0-.66-.37-.59s-.27.52-.31.82c-1.45.06-1.92-1.84-3.41-1.7Z"/><path class="cls-9" d="M55.94,47.43a38.17,38.17,0,0,1,6.41.35c1.32.14,2,1.31,1.75,2.95-.21,1.23-1,2.27-2.25,2.05-2.32-.4-4.63-.12-6.93-.26a1.66,1.66,0,0,0-.52-1c-1.18-1.37-1.08-2,.35-3.1C55.15,48.1,55.92,48.21,55.94,47.43Z"/><path class="cls-10" d="M55.59,53.57a31.48,31.48,0,0,1,5.73.27c1.19.27,2,.68,2.09,2A2.76,2.76,0,0,1,61,58.65c-1.58.08-3.16,0-4.75,0a.47.47,0,0,0,0-.17c-.57-.94-2.13-.71-2.37-2.09S55.26,54.66,55.59,53.57Z"/><path class="cls-11" d="M42.28,55.61a14.41,14.41,0,0,1-8.56-4.25c-.89-1-1.63-2.18-3-2.58,0-1.41-.22-2.89,1.36-3.72.88,3.07,3.13,5,5.7,6.56a11.5,11.5,0,0,0,9,1.26C45.72,54.58,43.84,54.84,42.28,55.61Z"/><path class="cls-6" d="M55.59,41.63c1.58,0,3.16,0,4.74,0s2.11,1,2.09,2.46-.64,2.27-2.09,2.3c-1.7,0-3.39,0-5.08,0-1.22-1.49-1.47-2.93.23-4.27C55.58,42,55.55,41.79,55.59,41.63Z"/><path class="cls-12" d="M35.12,58.68c3.14,1.23,6.3,2.42,9.78,2l3.17-.34c-.14,1.25.49,2.14,1.66,3.09a43.26,43.26,0,0,1-12.89-1.64C35.09,61.27,35.62,59.76,35.12,58.68Z"/><path class="cls-10" d="M53.88,59.69c1.92,0,3.84.05,5.76,0,1.18,0,2.21.07,2.36,1.5a2.44,2.44,0,0,1-2.23,2.56,12.27,12.27,0,0,1-3.87-.13,9.81,9.81,0,0,0-1.34-.17C53.93,62.27,53.06,61.14,53.88,59.69Z"/><path class="cls-13" d="M55.94,47.43c0,.78-.79.67-1.19,1-1.43,1.14-1.53,1.73-.35,3.1a1.66,1.66,0,0,1,.52,1c-1,0-2,.08-3.05,0a2.5,2.5,0,0,1-2.37-1.84c-.31-1.22.61-1.82,1.53-2.33A8.86,8.86,0,0,1,55.94,47.43Z"/><path class="cls-14" d="M52.86,46.41c-1.57.55-3.26,0-3.66-1.3-.45-1.49.63-2.12,1.72-2.69a2.66,2.66,0,0,1,1.6-.45C51.88,43.5,51.25,45,52.86,46.41Z"/><path class="cls-14" d="M52.86,58.33c-1.07-.32-2.24-.33-3.1-1.21-1-1.06-.93-2,.36-2.7a8.28,8.28,0,0,1,3.08-.85c-.13.29-.18.69-.41.87-1.22,1-1.16,2-.22,3.14A2.49,2.49,0,0,1,52.86,58.33Z"/><path class="cls-15" d="M52.86,58.33a2.49,2.49,0,0,0-.29-.75c-.94-1.14-1-2.16.22-3.14.23-.18.28-.58.41-.87h2.39c-.33,1.09-2,1.34-1.72,2.84s1.8,1.15,2.37,2.09a.47.47,0,0,1,0,.17C55.1,58.89,54,58.29,52.86,58.33Z"/><path class="cls-14" d="M30.68,56c1.49-.14,2,1.76,3.41,1.7v.68c0,.85,0,2-.76,2.23-1.06.27-1.81-.71-2.34-1.61S30.76,57,30.68,56Z"/><path class="cls-14" d="M51.83,62.78c-1.13-.24-2.69-.3-2.63-1.75.07-1.65,1.65-1.68,3-1.67A9.18,9.18,0,0,0,51.83,62.78Z"/><path class="cls-15" d="M51.83,62.78a9.18,9.18,0,0,1,.35-3.42c.57.08,1.22-.22,1.7.33-.82,1.45,0,2.58.68,3.76A5.13,5.13,0,0,1,51.83,62.78Z"/><path class="cls-16" d="M55.59,41.63c0,.16,0,.4-.11.48-1.7,1.34-1.45,2.78-.23,4.27l-1.37,0c-.06-.22-.06-.49-.2-.63-1.18-1.15-1.09-2.2.13-3.26a2.56,2.56,0,0,0,.41-.88Z"/><path class="cls-8" d="M54.22,41.63a2.56,2.56,0,0,1-.41.88c-1.22,1.06-1.31,2.11-.13,3.26.14.14.14.41.2.63h-1c-1.61-1.36-1-2.9-.34-4.43Z"/></svg>