<svg width="186" height="65" viewBox="0 0 186 65" fill="none" xmlns="http://www.w3.org/2000/svg">
<path fill-rule="evenodd" clip-rule="evenodd" d="M45.5487 13.1133L41.4398 59.0063L22.9699 64.1114L4.55088 59.0135L0.446289 13.1133H45.5487Z" fill="#E44D26"/>
<path fill-rule="evenodd" clip-rule="evenodd" d="M22.9971 60.2092L37.9216 56.0839L41.433 16.8662H22.9971V60.2092Z" fill="#F16529"/>
<path fill-rule="evenodd" clip-rule="evenodd" d="M15.0096 28.1256H22.9972V22.4961H8.83887L8.97402 24.0064L10.3618 39.5197H22.9972V33.8903H15.5256L15.0096 28.1256Z" fill="#EBEBEB"/>
<path fill-rule="evenodd" clip-rule="evenodd" d="M16.2823 42.3345H10.6143L11.4053 51.1736L22.9714 54.3748L22.9974 54.3676V48.5106L22.9727 48.5172L16.6843 46.8242L16.2823 42.3345Z" fill="#EBEBEB"/>
<path fill-rule="evenodd" clip-rule="evenodd" d="M4.6427 0.639648H7.5121V3.46613H10.137V0.639648H13.0065V9.19893H10.1371V6.33278H7.51222V9.19893H4.64282V0.639648H4.6427Z" fill="black"/>
<path fill-rule="evenodd" clip-rule="evenodd" d="M16.78 3.47803H14.2539V0.639648H22.1769V3.47803H19.6497V9.19893H16.7801V3.47803H16.78Z" fill="black"/>
<path fill-rule="evenodd" clip-rule="evenodd" d="M23.4336 0.639648H26.4256L28.2661 3.64712L30.1047 0.639648H33.0978V9.19893H30.2402V4.95648L28.2661 7.99978H28.2167L26.2412 4.95648V9.19893H23.4336V0.639648Z" fill="black"/>
<path fill-rule="evenodd" clip-rule="evenodd" d="M34.5264 0.639648H37.3967V6.36972H41.4319V9.19893H34.5264V0.639648Z" fill="black"/>
<path fill-rule="evenodd" clip-rule="evenodd" d="M22.9775 39.5195H29.9304L29.275 46.8205L22.9775 48.5152V54.372L34.5529 51.1735L34.6378 50.2224L35.9646 35.4018L36.1024 33.8901H22.9775V39.5195Z" fill="white"/>
<path fill-rule="evenodd" clip-rule="evenodd" d="M22.9775 28.1119V28.1256H36.6162L36.7294 26.8603L36.9867 24.0064L37.1217 22.4961H22.9775V28.1119Z" fill="white"/>
<path d="M83.5736 64.1114L65.1561 59.0134L61.0518 13.1133H106.15L102.042 59.0064L83.5736 64.1114Z" fill="#264DE4"/>
<path d="M98.525 56.084L102.036 16.8662H83.6016V60.2092L98.525 56.084Z" fill="#2965F1"/>
<path d="M70.4612 33.8902L70.9671 39.5197H83.6015V33.8902H70.4612ZM69.4443 22.4961L69.9575 28.1256H83.6015V22.4961H69.4443ZM83.6015 48.5106L83.5768 48.5171L77.289 46.8242L76.887 42.3345H71.2194L72.0103 51.1736L83.5756 54.3746L83.6015 54.3676V48.5106Z" fill="#EBEBEB"/>
<path d="M71.666 0.639648H78.5039V3.49095H74.5256V6.34226H78.5043V9.19339H71.666V0.639648ZM79.8717 0.639648H86.7098V3.11903H82.7313V3.61487H86.7098V9.31748H79.8719V6.71383H83.8503V6.21799H79.8715V0.639648H79.8717ZM88.0775 0.639648H94.9156V3.11903H90.9372V3.61487H94.9156V9.31748H88.0775V6.71383H92.056V6.21799H88.0777V0.639648H88.0775Z" fill="black"/>
<path d="M96.7059 33.8902L97.7251 22.4961H83.5822V28.1256H91.5377L91.024 33.8902H83.5822V39.5197H90.5345L89.879 46.8207L83.582 48.5153V54.372L95.1565 51.1736L95.2413 50.2225L96.5682 35.4019L96.7059 33.8902Z" fill="white"/>
<path d="M121.576 0.674316H185.657V64.307H121.576V0.674316Z" fill="#F7DF1E"/>
<path d="M138.425 53.8503L143.329 50.9033C144.275 52.569 145.136 53.9783 147.2 53.9783C149.179 53.9783 150.426 53.2098 150.426 50.22V29.8879H156.448V50.3046C156.448 56.4981 152.792 59.3173 147.458 59.3173C142.641 59.3173 139.844 56.8398 138.425 53.8498L138.425 53.8503ZM159.719 53.2095L164.622 50.3906C165.913 52.4837 167.591 54.0213 170.559 54.0213C173.054 54.0213 174.645 52.7825 174.645 51.0739C174.645 49.0237 173.01 48.2974 170.257 47.1018L168.752 46.4605C164.408 44.6243 161.526 42.3177 161.526 37.4483C161.526 32.9632 164.967 29.5459 170.344 29.5459C174.172 29.5459 176.925 30.8703 178.904 34.33L174.215 37.3203C173.182 35.4836 172.064 34.7576 170.344 34.7576C168.58 34.7576 167.461 35.8681 167.461 37.3203C167.461 39.1142 168.58 39.8407 171.161 40.9513L172.666 41.5919C177.785 43.7705 180.667 45.9915 180.667 50.9886C180.667 56.371 176.408 59.318 170.688 59.318C165.096 59.318 161.482 56.6698 159.719 53.2098" fill="black"/>
</svg>
