<svg width="261" height="67" viewBox="0 0 261 67" fill="none" xmlns="http://www.w3.org/2000/svg">
<path fill-rule="evenodd" clip-rule="evenodd" d="M45.5487 14.1133L41.4398 60.0063L22.9699 65.1114L4.55088 60.0135L0.446289 14.1133H45.5487Z" fill="#E44D26"/>
<path fill-rule="evenodd" clip-rule="evenodd" d="M22.9971 61.2092L37.9216 57.0839L41.433 17.8662H22.9971V61.2092Z" fill="#F16529"/>
<path fill-rule="evenodd" clip-rule="evenodd" d="M15.0096 29.1256H22.9972V23.4961H8.83887L8.97402 25.0064L10.3618 40.5197H22.9972V34.8903H15.5256L15.0096 29.1256Z" fill="#EBEBEB"/>
<path fill-rule="evenodd" clip-rule="evenodd" d="M16.2823 43.3345H10.6143L11.4053 52.1736L22.9714 55.3748L22.9974 55.3676V49.5106L22.9727 49.5172L16.6843 47.8242L16.2823 43.3345Z" fill="#EBEBEB"/>
<path fill-rule="evenodd" clip-rule="evenodd" d="M4.64258 1.63965H7.51198V4.46613H10.1368V1.63965H13.0063V10.1989H10.1369V7.33278H7.5121V10.1989H4.6427V1.63965H4.64258Z" fill="black"/>
<path fill-rule="evenodd" clip-rule="evenodd" d="M16.78 4.47803H14.2539V1.63965H22.1769V4.47803H19.6497V10.1989H16.7801V4.47803H16.78Z" fill="black"/>
<path fill-rule="evenodd" clip-rule="evenodd" d="M23.4336 1.63965H26.4256L28.2661 4.64712L30.1047 1.63965H33.0978V10.1989H30.2402V5.95648L28.2661 8.99978H28.2167L26.2412 5.95648V10.1989H23.4336V1.63965Z" fill="black"/>
<path fill-rule="evenodd" clip-rule="evenodd" d="M34.5264 1.63965H37.3967V7.36972H41.4319V10.1989H34.5264V1.63965Z" fill="black"/>
<path fill-rule="evenodd" clip-rule="evenodd" d="M22.9775 40.5195H29.9304L29.275 47.8205L22.9775 49.5152V55.372L34.5529 52.1735L34.6378 51.2224L35.9646 36.4018L36.1024 34.8901H22.9775V40.5195Z" fill="white"/>
<path fill-rule="evenodd" clip-rule="evenodd" d="M22.9775 29.1119V29.1256H36.6162L36.7294 27.8603L36.9867 25.0064L37.1217 23.4961H22.9775V29.1119Z" fill="white"/>
<path d="M83.5736 65.1114L65.1561 60.0134L61.0518 14.1133H106.15L102.042 60.0064L83.5736 65.1114Z" fill="#264DE4"/>
<path d="M98.525 57.084L102.036 17.8662H83.6016V61.2092L98.525 57.084Z" fill="#2965F1"/>
<path d="M70.4612 34.8902L70.9671 40.5197H83.6015V34.8902H70.4612ZM69.4443 23.4961L69.9575 29.1256H83.6015V23.4961H69.4443ZM83.6015 49.5106L83.5768 49.5171L77.289 47.8242L76.887 43.3345H71.2194L72.0103 52.1736L83.5756 55.3746L83.6015 55.3676V49.5106Z" fill="#EBEBEB"/>
<path d="M71.666 1.63965H78.5039V4.49095H74.5256V7.34226H78.5043V10.1934H71.666V1.63965ZM79.8717 1.63965H86.7098V4.11903H82.7313V4.61487H86.7098V10.3175H79.8719V7.71383H83.8503V7.21799H79.8715V1.63965H79.8717ZM88.0775 1.63965H94.9156V4.11903H90.9372V4.61487H94.9156V10.3175H88.0775V7.71383H92.056V7.21799H88.0777V1.63965H88.0775Z" fill="black"/>
<path d="M96.7059 34.8902L97.7251 23.4961H83.5822V29.1256H91.5377L91.024 34.8902H83.5822V40.5197H90.5345L89.879 47.8207L83.582 49.5153V55.372L95.1565 52.1736L95.2413 51.2225L96.5682 36.4019L96.7059 34.8902Z" fill="white"/>
<path d="M121.576 1.67432H185.657V65.307H121.576V1.67432Z" fill="#F7DF1E"/>
<path d="M138.425 54.8503L143.329 51.9033C144.275 53.569 145.136 54.9783 147.2 54.9783C149.179 54.9783 150.426 54.2098 150.426 51.22V30.8879H156.448V51.3046C156.448 57.4981 152.792 60.3173 147.458 60.3173C142.641 60.3173 139.844 57.8398 138.425 54.8498L138.425 54.8503ZM159.719 54.2095L164.622 51.3906C165.913 53.4837 167.591 55.0213 170.559 55.0213C173.054 55.0213 174.645 53.7825 174.645 52.0739C174.645 50.0237 173.01 49.2974 170.257 48.1018L168.752 47.4605C164.408 45.6243 161.526 43.3177 161.526 38.4483C161.526 33.9632 164.967 30.5459 170.344 30.5459C174.172 30.5459 176.925 31.8703 178.904 35.33L174.215 38.3203C173.182 36.4836 172.064 35.7576 170.344 35.7576C168.58 35.7576 167.461 36.8681 167.461 38.3203C167.461 40.1142 168.58 40.8407 171.161 41.9513L172.666 42.5919C177.785 44.7705 180.667 46.9915 180.667 51.9886C180.667 57.371 176.408 60.318 170.688 60.318C165.096 60.318 161.482 57.6698 159.719 54.2098" fill="black"/>
<path d="M207.469 57.159C207.469 54.5133 206.711 53.1934 205.194 53.1446C204.577 53.0987 204.01 53.2393 203.439 53.4287C202.964 53.5693 202.682 53.7587 202.538 53.9021V60.1347C203.485 60.7488 204.338 61.0329 205.098 60.9841C206.663 60.8406 207.469 59.5666 207.469 57.159ZM209.318 57.2537C209.318 58.5766 209.033 59.6612 208.371 60.5594C207.659 61.5523 206.711 62.0716 205.433 62.0716C204.485 62.1175 203.537 61.7876 202.541 61.1735V66.8408L200.928 66.2726V53.664C201.213 53.334 201.544 53.0499 201.924 52.8146C202.872 52.2493 204.059 51.9652 205.384 51.9652C206.616 51.9652 207.61 52.4846 208.276 53.4775C208.984 54.5621 209.318 55.7415 209.318 57.2537ZM219.129 60.9841C219.129 62.7775 218.939 64.0057 218.607 64.6685C218.227 65.3285 217.565 65.8967 216.568 66.3214C215.716 66.6514 214.863 66.8408 213.912 66.8408L213.627 65.8479C214.624 65.7073 215.286 65.5638 215.667 65.4691C216.424 65.1851 216.994 64.8091 217.277 64.241C217.513 63.8163 217.608 62.9669 217.608 61.7388V61.3141C216.519 61.8335 215.332 62.0688 214.149 62.0688C213.342 62.0688 212.631 61.8335 212.063 61.3141C211.401 60.7947 211.067 60.0859 211.067 59.2366V52.5793L212.677 52.014V58.72C212.677 59.4288 212.913 59.9941 213.388 60.3729C213.863 60.7517 214.431 60.9382 215.188 60.9382C215.946 60.9382 216.706 60.6541 217.559 60.0888V52.2464H219.169L219.129 60.9841ZM225.385 62.0229H224.863C223.962 62.0229 223.253 61.7876 222.729 61.3629C222.208 60.9382 221.972 60.3241 221.972 59.5694V53.2422H220.883V52.2464H221.972V49.5548L223.582 48.9895V52.2464H225.382V53.2393H223.582V59.4719C223.582 60.0859 223.723 60.5106 224.057 60.7459C224.342 60.9353 224.768 61.0759 225.385 61.1247V62.0229ZM235.149 61.8794H233.539V55.6927C233.539 55.0786 233.398 54.5133 233.113 54.0887C232.781 53.5693 232.306 53.334 231.69 53.334C230.932 53.334 230.031 53.7128 228.942 54.5133V61.9282H227.332V47.1473L228.942 46.6279V53.334C229.985 52.5793 231.076 52.2005 232.306 52.2005C233.159 52.2005 233.824 52.4846 234.392 53.0499C234.913 53.6152 235.198 54.324 235.198 55.1762L235.149 61.8794ZM243.681 56.875C243.681 55.8821 243.491 55.0327 243.113 54.3727C242.638 53.5693 241.976 53.1446 240.979 53.0987C239.225 53.1934 238.323 54.4674 238.323 56.875C238.323 58.0084 238.513 58.9066 238.891 59.6612C239.366 60.6053 240.075 61.0788 241.025 61.0788C242.779 61.03 243.681 59.6612 243.681 56.875ZM245.435 56.875C245.435 58.2925 245.055 59.5206 244.346 60.4647C243.54 61.5035 242.402 62.0688 241.028 62.0688C239.605 62.0688 238.516 61.5494 237.71 60.4647C236.998 59.5206 236.621 58.3384 236.621 56.875C236.621 55.5062 237.001 54.3727 237.805 53.4746C238.657 52.4817 239.7 52.0111 241.028 52.0111C242.356 52.0111 243.445 52.4846 244.297 53.4746C245.055 54.4187 245.435 55.5521 245.435 56.875ZM254.678 61.8794H253.068V55.3627C253.068 54.6539 252.832 54.0887 252.405 53.7099C251.979 53.3311 251.409 53.0958 250.651 53.1446C249.894 53.1446 249.133 53.4287 248.471 53.8993V61.9741H246.861V53.7099C247.762 53.0499 248.615 52.5764 249.421 52.387C250.179 52.1977 250.795 52.103 251.366 52.103C251.746 52.103 252.123 52.1489 252.454 52.1977C253.071 52.3383 253.592 52.6223 253.972 53.0011C254.399 53.4258 254.635 53.994 254.635 54.6052L254.678 61.8794Z" fill="#656565"/>
<path d="M227.093 0.116077C225.575 0.116077 224.106 0.256683 222.827 0.494853C219.036 1.15484 218.371 2.52647 218.371 5.12337V8.52374H227.283V9.6572H215.053C212.492 9.6572 210.22 11.2153 209.508 14.1422C208.702 17.5426 208.655 19.6201 209.508 23.1611C210.124 25.8068 211.642 27.6462 214.249 27.6462H217.331V23.5858C217.331 20.6589 219.892 18.062 222.876 18.062H231.739C234.204 18.062 236.194 16.0304 236.194 13.5282V5.07459C236.194 2.66707 234.155 0.870759 231.739 0.446071C230.172 0.210771 228.608 0.0701656 227.093 0.116077ZM222.256 2.80768C223.158 2.80768 223.916 3.56236 223.916 4.50643C223.916 5.4505 223.158 6.20518 222.256 6.20518C221.355 6.20518 220.597 5.4505 220.597 4.50643C220.597 3.56236 221.309 2.80768 222.256 2.80768Z" fill="url(#paint0_linear_415_777)"/>
<path d="M237.283 9.55957V13.4794C237.283 16.5497 234.677 19.0978 231.69 19.0978H222.827C220.41 19.0978 218.371 21.1754 218.371 23.6317V32.0852C218.371 34.4928 220.456 35.9103 222.827 36.6191C225.624 37.4684 228.326 37.6119 231.739 36.6191C233.965 35.9591 236.195 34.6822 236.195 32.0852V28.6849H227.28V27.5514H240.648C243.208 27.5514 244.202 25.758 245.104 23.0664C246.051 20.2801 246.005 17.6373 245.104 14.0475C244.487 11.4965 243.254 9.56244 240.648 9.56244L237.283 9.55957ZM232.257 30.9518C233.159 30.9518 233.916 31.7065 233.916 32.6505C233.916 33.5946 233.159 34.3493 232.257 34.3493C231.356 34.3493 230.598 33.5946 230.598 32.6505C230.598 31.7065 231.359 30.9518 232.257 30.9518Z" fill="url(#paint1_linear_415_777)"/>
<path d="M257.757 50.8319H258.042V49.0844H258.705V48.8491H257.095V49.0844H257.757V50.8319ZM258.99 50.8319H259.226V49.2279L259.748 50.8319H260.033L260.554 49.2279V50.8319H260.839V48.8491H260.508L259.892 50.5479L259.37 48.8491H258.99V50.8319Z" fill="#656565"/>
<path opacity="0.444" d="M239.32 42.3324C239.32 43.6064 233.966 44.6452 227.375 44.6452C220.785 44.6452 215.431 43.6064 215.431 42.3324C215.431 41.0583 220.785 40.0195 227.375 40.0195C233.966 40.0195 239.32 41.0554 239.32 42.3324Z" fill="url(#paint2_radial_415_777)"/>
<defs>
<linearGradient id="paint0_linear_415_777" x1="207.903" y1="1.12182" x2="228.373" y2="18.6285" gradientUnits="userSpaceOnUse">
<stop stop-color="#5CA0D5"/>
<stop offset="1" stop-color="#316A99"/>
</linearGradient>
<linearGradient id="paint1_linear_415_777" x1="236.18" y1="29.4051" x2="228.85" y2="19.0951" gradientUnits="userSpaceOnUse">
<stop stop-color="#FFD43E"/>
<stop offset="1" stop-color="#FFE975"/>
</linearGradient>
<radialGradient id="paint2_radial_415_777" cx="0" cy="0" r="1" gradientUnits="userSpaceOnUse" gradientTransform="translate(227.367 41.9439) rotate(-90) scale(2.30406 10.1679)">
<stop stop-color="#B8B8B8" stop-opacity="0.498"/>
<stop offset="1" stop-color="#7F8080" stop-opacity="0"/>
</radialGradient>
</defs>
</svg>
