<svg width="324" height="50" viewBox="0 0 324 50" fill="none" xmlns="http://www.w3.org/2000/svg">
<path d="M27.0168 36.514C26.9244 36.5142 26.8336 36.4904 26.7531 36.4449C26.6727 36.3995 26.6054 36.3339 26.5579 36.2547L22.5236 29.5255L14.9785 31.5775C14.8636 31.6053 14.7427 31.594 14.6348 31.5456C14.527 31.4972 14.4382 31.4143 14.3826 31.3099L5.56523 14.7357C5.52474 14.6598 5.5032 14.5753 5.50246 14.4892C5.50173 14.4032 5.52181 14.3182 5.56099 14.2416C5.60018 14.165 5.65731 14.099 5.72751 14.0493C5.7977 13.9996 5.8789 13.9675 5.96415 13.956L13.4501 12.9497C13.5536 12.9353 13.6589 12.9515 13.7532 12.9965C13.8474 13.0415 13.9264 13.1131 13.9803 13.2024L23.0095 28.2844L33.5111 25.4279L30.0095 20.4824C29.959 20.4121 29.9264 20.3306 29.9145 20.2448C29.9024 20.1591 29.9115 20.0717 29.9409 19.9903C29.9702 19.9089 30.0189 19.8358 30.0828 19.7773C30.1466 19.7189 30.2237 19.677 30.3075 19.655L35.2202 18.4935C35.3183 18.4702 35.4211 18.4751 35.5165 18.5078C35.612 18.5405 35.6962 18.5996 35.7595 18.6782L40.0113 23.9873C40.0668 24.0564 40.1041 24.1382 40.12 24.2254C40.1359 24.3125 40.1298 24.4023 40.1024 24.4865C40.0749 24.5706 40.027 24.6467 39.9628 24.7078C39.8986 24.7688 39.8202 24.8129 39.7347 24.8361L35.2694 26.0542L39.179 31.5538C39.2269 31.6212 39.2585 31.6989 39.2711 31.7806C39.2838 31.8624 39.2774 31.946 39.2522 32.0248C39.227 32.1036 39.1839 32.1756 39.1261 32.2348C39.0685 32.294 38.9978 32.3391 38.9196 32.3664L27.1859 36.4812C27.1314 36.5013 27.074 36.5123 27.016 36.514H27.0168ZM23.5923 29.2332L27.2491 35.332L37.9059 31.6014L34.1843 26.3546L23.5923 29.2332ZM6.86788 14.904L15.1197 30.4341L21.9678 28.5757L13.2465 14.0537L6.86788 14.904ZM31.3557 20.5136L34.639 25.1315L38.712 24.0234L35.1685 19.6106L31.3557 20.5136ZM45.6274 18.9015H46.6945V30.3439H45.6315L45.6274 18.9015ZM57.119 22.0888V30.3439H56.0709V28.9156C55.6645 29.4245 55.1532 29.8415 54.572 30.137C53.7812 30.515 52.8916 30.6353 52.0287 30.4808C51.1659 30.3264 50.3733 29.9049 49.7628 29.2759C49.359 28.8704 49.0411 28.3877 48.828 27.8565C48.6149 27.3255 48.511 26.7568 48.5225 26.1847C48.5138 25.6181 48.6203 25.0555 48.8354 24.5312C49.0506 24.0069 49.37 23.5317 49.7743 23.1345C50.1628 22.7262 50.6318 22.4029 51.1515 22.1849C51.6712 21.9669 52.2305 21.859 52.7941 21.868C53.4344 21.8598 54.0664 22.0075 54.6344 22.3006C55.2112 22.6136 55.7063 23.0578 56.0799 23.5974V22.0871L57.119 22.0888ZM52.8753 22.9096C52.2978 22.9058 51.7301 23.058 51.2318 23.3498C50.7336 23.6418 50.3233 24.0629 50.0444 24.5685C49.4509 25.6011 49.4509 26.8709 50.0444 27.9035C50.3259 28.4165 50.7403 28.8442 51.2444 29.1414C51.7331 29.4331 52.2921 29.5864 52.8614 29.5846C53.4409 29.5848 54.0103 29.4331 54.5129 29.1446C55.0161 28.868 55.4322 28.4551 55.7129 27.9544C55.9993 27.4345 56.1445 26.8487 56.134 26.2553C56.1461 25.8131 56.0688 25.3729 55.9066 24.9613C55.7445 24.5498 55.5007 24.1751 55.1901 23.8601C54.8906 23.5503 54.5303 23.3057 54.1319 23.1417C53.7334 22.9778 53.3053 22.8979 52.8745 22.9072L52.8753 22.9096ZM59.1071 22.0888H60.1922V23.2954C60.4638 22.8788 60.812 22.5175 61.2183 22.2307C61.5492 22.0042 61.9401 21.8814 62.3411 21.8778C62.6748 21.8888 63 21.9857 63.2851 22.1593L62.7286 23.0623C62.5487 22.9761 62.3533 22.9273 62.154 22.9186C61.7697 22.9304 61.4039 23.0859 61.1288 23.3545C60.7528 23.7242 60.4908 24.1939 60.3736 24.7081C60.2478 25.1786 60.1848 26.1291 60.1848 27.5596V30.3529H59.0997L59.1071 22.0888ZM72.4045 22.0888V30.3439H71.3571V28.9156C70.9508 29.4245 70.4395 29.8415 69.8583 30.137C69.0675 30.515 68.1779 30.6353 67.3151 30.4808C66.4522 30.3264 65.6596 29.9049 65.0491 29.2759C64.6453 28.8704 64.3274 28.3877 64.1143 27.8565C63.9012 27.3255 63.7973 26.7568 63.8088 26.1847C63.7924 25.0397 64.2438 23.9356 65.0622 23.1345C65.4508 22.7262 65.9197 22.4029 66.4394 22.1849C66.9592 21.9669 67.5185 21.859 68.082 21.868C68.7223 21.8598 69.3543 22.0075 69.9223 22.3006C70.4992 22.6136 70.9943 23.0578 71.3678 23.5974V22.0871L72.4045 22.0888ZM68.1608 22.9096C67.5834 22.9058 67.0155 23.058 66.5173 23.3498C66.019 23.6418 65.6088 24.0629 65.3298 24.5685C64.7363 25.6011 64.7363 26.8709 65.3298 27.9035C65.6113 28.4165 66.0259 28.8442 66.5298 29.1414C67.0186 29.4331 67.5777 29.5864 68.1469 29.5846C68.7263 29.5848 69.2958 29.4331 69.7984 29.1446C70.3016 28.868 70.7178 28.4551 70.9985 27.9544C71.2848 27.4345 71.43 26.8487 71.4195 26.2553C71.4329 25.8117 71.3562 25.3701 71.1941 24.957C71.032 24.544 70.7878 24.168 70.4764 23.8519C70.1771 23.5423 69.817 23.2979 69.4189 23.1339C69.0207 22.9698 68.593 22.8899 68.1625 22.8989L68.1608 22.9096ZM74.0158 22.0888H75.1486L77.9197 28.1055L80.6612 22.0888H81.794L78.0182 30.3447H77.8294L74.0158 22.0888ZM90.3562 27.6048L91.2589 28.075C91.0062 28.5976 90.6616 29.0707 90.242 29.4721C89.8643 29.8216 89.4241 30.0957 88.9434 30.2798C88.4209 30.4718 87.8674 30.5658 87.3108 30.5573C85.9646 30.5573 84.9112 30.1195 84.1506 29.2439C83.4161 28.4203 83.0126 27.3539 83.0178 26.2504C83.0071 25.2341 83.3478 24.2451 83.9823 23.4596C84.3628 22.956 84.8586 22.5512 85.4281 22.2792C85.9977 22.0072 86.6242 21.876 87.255 21.8967C87.9038 21.8754 88.5483 22.0096 89.1347 22.288C89.7214 22.5665 90.2321 22.9811 90.6259 23.4973C91.2241 24.2524 91.525 25.1965 91.5294 26.3291H84.0964C84.0841 27.205 84.4141 28.0505 85.0157 28.6865C85.297 28.9848 85.6376 29.2207 86.0157 29.379C86.3937 29.5374 86.8008 29.6147 87.2106 29.6059C87.6295 29.6063 88.045 29.532 88.4378 29.3867C88.8078 29.2554 89.1511 29.0585 89.4518 28.8056C89.8107 28.4589 90.1152 28.0598 90.3553 27.622L90.3562 27.6048ZM90.3562 25.3885C90.2491 24.8972 90.0384 24.4344 89.7375 24.0316C89.4482 23.6788 89.0803 23.3982 88.6635 23.2124C88.226 23.0073 87.7483 22.9006 87.2648 22.9006C86.4943 22.885 85.7469 23.1646 85.1758 23.682C84.7506 24.065 84.4291 24.6315 84.2113 25.3811L90.3562 25.3885ZM93.3437 18.9105H94.4071V30.3529H93.3437V18.9105Z" fill="#EF533F"/>
<path d="M127.466 8.90796H132.419V31.8338C129.878 32.3163 128.013 32.5093 125.986 32.5093C119.939 32.5093 116.787 29.7759 116.787 24.5332C116.787 19.4835 120.132 16.2035 125.309 16.2035C126.114 16.2035 126.725 16.2675 127.464 16.4604L127.466 8.90796ZM127.466 20.4488C126.887 20.2559 126.404 20.1919 125.794 20.1919C123.285 20.1919 121.837 21.7351 121.837 24.4372C121.837 27.0746 123.22 28.5217 125.761 28.5217C126.332 28.5206 126.901 28.4778 127.466 28.3937V20.4488ZM140.299 16.558V28.0398C140.299 31.9963 140.009 33.8923 139.149 35.534C138.345 37.11 137.284 38.1073 135.097 39.2006L130.498 37.0131C132.685 35.9838 133.746 35.0842 134.422 33.7003C135.129 32.2852 135.355 30.6452 135.355 26.335V16.5671L140.299 16.558ZM135.346 8.9367H140.299V14.0258H135.346V8.9367ZM143.29 17.6834C145.477 16.6541 147.558 16.2043 149.851 16.2043C152.392 16.2043 154.065 16.8798 154.804 18.1989C155.215 18.9377 155.351 19.9038 155.351 21.9624V32.0348C153.132 32.3566 150.333 32.5815 148.275 32.5815C144.127 32.5815 142.261 31.1336 142.261 27.9175C142.261 24.4438 144.738 22.8284 150.817 22.3212V21.2278C150.817 20.3273 150.365 19.9965 149.112 19.9965C147.279 19.9965 145.221 20.5112 143.291 21.5085V17.681L143.29 17.6834ZM151.041 25.5634C147.76 25.8852 146.69 26.4006 146.69 27.6861C146.69 28.6505 147.302 29.1012 148.66 29.1012C149.399 29.1012 150.076 29.0371 151.041 28.8763V25.5634ZM157.772 17.3304C160.698 16.5589 163.11 16.206 165.555 16.206C168.095 16.206 169.93 16.7846 171.023 17.9108C172.052 18.9721 172.373 20.1295 172.373 22.606V32.3188H167.421V22.7972C167.421 20.8995 166.777 20.1919 165.007 20.1919C164.332 20.1919 163.721 20.2559 162.724 20.5448V32.3155H157.763L157.772 17.3304ZM174.291 35.0194C176.028 35.9198 177.765 36.3376 179.598 36.3376C182.846 36.3376 184.229 35.0194 184.229 31.8673V31.7705C183.264 32.2523 182.3 32.4461 181.013 32.4461C176.662 32.4461 173.904 29.5838 173.904 25.0488C173.904 19.4195 177.99 16.2363 185.225 16.2363C187.348 16.2363 189.31 16.4613 191.69 16.9438L189.994 20.517C188.675 20.26 189.887 20.4825 188.892 20.3856V20.9003L188.956 22.9901L188.989 25.6922C189.021 26.3678 189.021 27.0434 189.054 27.718V29.0692C189.054 33.3145 188.701 35.3075 187.639 36.9491C186.096 39.3623 183.426 40.5608 179.63 40.5608C177.701 40.5608 176.029 40.271 174.292 39.5955V35.0284L174.291 35.0194ZM184.141 20.2247H183.626C182.662 20.1919 181.536 20.4496 180.764 20.9323C179.574 21.6079 178.963 22.83 178.963 24.5669C178.963 27.0434 180.194 28.4577 182.373 28.4577C183.048 28.4577 183.604 28.3288 184.238 28.1359V26.431C184.238 25.8523 184.205 25.1997 184.205 24.5332L184.172 22.2497L184.139 20.6097V20.2239L184.141 20.2247ZM199.379 16.1403C204.331 16.1403 207.355 19.2595 207.355 24.31C207.355 29.4813 204.203 32.7366 199.185 32.7366C194.232 32.7366 191.176 29.6175 191.176 24.5997C191.176 19.3891 194.328 16.1411 199.378 16.1411L199.379 16.1403ZM199.282 28.7482C201.18 28.7482 202.305 27.1722 202.305 24.4388C202.305 21.7301 201.212 20.1295 199.315 20.1295C197.345 20.1295 196.227 21.7055 196.227 24.4388C196.227 27.1722 197.353 28.7482 199.282 28.7482Z" fill="#092E20"/>
<path d="M245.549 27.5565C247.125 27.5565 248.402 26.2793 248.402 24.7037C248.402 23.1282 247.125 21.8508 245.549 21.8508C243.973 21.8508 242.696 23.1282 242.696 24.7037C242.696 26.2793 243.973 27.5565 245.549 27.5565Z" fill="#00D8FF"/>
<path fill-rule="evenodd" clip-rule="evenodd" d="M245.549 18.9028C249.379 18.9028 252.938 19.4525 255.621 20.376C258.853 21.489 260.841 23.1758 260.841 24.7033C260.841 26.295 258.734 28.087 255.263 29.2371C252.638 30.1067 249.185 30.5606 245.549 30.5606C241.821 30.5606 238.291 30.1345 235.637 29.2276C232.279 28.0799 230.257 26.2646 230.257 24.7033C230.257 23.1882 232.154 21.5143 235.342 20.4032C238.035 19.4643 241.681 18.9028 245.548 18.9028H245.549Z" stroke="#00D8FF" stroke-width="1.48457"/>
<path fill-rule="evenodd" clip-rule="evenodd" d="M240.499 21.8199C242.413 18.5018 244.666 15.6939 246.807 13.8312C249.386 11.5868 251.84 10.7079 253.163 11.4709C254.542 12.2661 255.042 14.9861 254.304 18.5677C253.747 21.2756 252.414 24.494 250.598 27.6437C248.736 30.8731 246.603 33.7183 244.492 35.5637C241.82 37.8991 239.237 38.7442 237.885 37.9642C236.572 37.2079 236.07 34.7274 236.7 31.4112C237.232 28.6094 238.567 25.1704 240.499 21.8198L240.499 21.8199Z" stroke="#00D8FF" stroke-width="1.48457"/>
<path fill-rule="evenodd" clip-rule="evenodd" d="M240.505 27.652C238.585 24.3377 237.279 20.9822 236.734 18.1975C236.077 14.8424 236.541 12.2771 237.863 11.5119C239.241 10.7144 241.847 11.6395 244.582 14.0675C246.649 15.9032 248.772 18.6645 250.594 21.8112C252.461 25.0375 253.861 28.3061 254.406 31.0569C255.095 34.5378 254.537 37.1976 253.186 37.9798C251.875 38.7389 249.475 37.9353 246.917 35.7336C244.755 33.8735 242.442 30.9992 240.505 27.6519V27.652Z" stroke="#00D8FF" stroke-width="1.48457"/>
<path fill-rule="evenodd" clip-rule="evenodd" d="M277.216 31.9921L273.72 26.7093C275.487 26.5533 277.079 25.2728 277.079 22.9335C277.079 20.553 275.39 19.0295 273.02 19.0295H267.816V31.9823H269.428V26.8357H272.011L275.313 31.9823L277.216 31.9921ZM272.827 25.4279H269.429V20.4759H272.827C274.362 20.4759 275.41 21.4855 275.41 22.9425C275.41 24.3995 274.361 25.4296 272.827 25.4296V25.4279ZM283.217 32.2245C284.752 32.2245 286.014 31.7196 286.946 30.7879L286.247 29.8358C285.508 30.5935 284.422 31.0203 283.354 31.0203C281.334 31.0203 280.091 29.5445 279.974 27.778H287.567V27.4086C287.567 24.5932 285.897 22.3786 283.061 22.3786C280.381 22.3786 278.439 24.5735 278.439 27.292C278.439 30.2249 280.44 32.217 283.217 32.217L283.217 32.2245ZM286.131 26.7085H279.975C280.053 25.272 281.042 23.5811 283.043 23.5811C285.18 23.5811 286.112 25.3097 286.131 26.7085ZM297.24 31.9913V25.5436C297.24 23.2716 295.591 22.3778 293.609 22.3778C292.074 22.3778 290.871 22.8826 289.861 23.9316L290.541 24.9412C291.376 24.0481 292.289 23.6402 293.415 23.6402C294.775 23.6402 295.785 24.3584 295.785 25.6209V27.3101C295.027 26.436 293.96 26.0279 292.677 26.0279C291.085 26.0279 289.394 27.0187 289.394 29.116C289.394 31.1549 291.083 32.2236 292.677 32.2236C293.94 32.2236 295.009 31.777 295.785 30.9226V31.9896L297.24 31.9913ZM293.202 31.1754C291.843 31.1754 290.89 30.3218 290.89 29.1364C290.89 27.9323 291.843 27.0778 293.202 27.0778C294.231 27.0778 295.221 27.4661 295.785 28.2434V30.0106C295.222 30.7871 294.231 31.1762 293.202 31.1762V31.1754ZM304.283 32.2245C305.992 32.2245 307.002 31.5251 307.721 30.5935L306.75 29.7003C306.128 30.5352 305.332 30.9234 304.369 30.9234C302.369 30.9234 301.127 29.3695 301.127 27.292C301.127 25.2145 302.37 23.6804 304.369 23.6804C305.34 23.6804 306.137 24.0498 306.75 24.9035L307.721 24.0103C307.002 23.0779 305.992 22.3794 304.283 22.3794C301.487 22.3794 299.603 24.516 299.603 27.2928C299.603 30.0895 301.487 32.2178 304.283 32.2178V32.2245ZM312.13 32.2245C312.984 32.2245 313.509 31.9716 313.879 31.6228L313.452 30.5352C313.257 30.7486 312.877 30.9234 312.461 30.9234C311.821 30.9234 311.509 30.4186 311.509 29.7193V23.893H313.413V22.6117H311.509V20.0482H310.052V22.6117H308.498V23.8938H310.052V30.0311C310.052 31.4299 310.751 32.2261 312.13 32.2261V32.2245Z" fill="#00D8FF"/>
</svg>
