<svg width="190" height="60" viewBox="0 0 190 60" fill="none" xmlns="http://www.w3.org/2000/svg">
<path d="M10.6246 3.36377H46.485C47.7766 3.36257 49.0557 3.61306 50.2492 4.1009C51.4427 4.58874 52.5272 5.30436 53.4405 6.2068C54.3538 7.10923 55.078 8.18078 55.5717 9.3601C56.0654 10.5394 56.3189 11.8034 56.3177 13.0796V47.1422C56.3189 48.4184 56.0654 49.6824 55.5717 50.8617C55.078 52.041 54.3538 53.1126 53.4405 54.015C52.5272 54.9174 51.4427 55.6331 50.2492 56.1209C49.0557 56.6087 47.7766 56.8592 46.485 56.858H10.6246C9.33309 56.8592 8.05394 56.6087 6.86043 56.1209C5.66693 55.6331 4.5825 54.9174 3.66921 54.015C2.75592 53.1126 2.03169 52.041 1.53798 50.8617C1.04428 49.6824 0.79078 48.4184 0.791997 47.1422V13.0796C0.79078 11.8034 1.04428 10.5394 1.53798 9.3601C2.03169 8.18078 2.75592 7.10923 3.66921 6.2068C4.5825 5.30436 5.66693 4.58874 6.86043 4.1009C8.05394 3.61306 9.33309 3.36257 10.6246 3.36377Z" fill="#470137"/>
<path d="M29.9894 17.423L23.0487 28.7391L30.4521 40.741C30.5008 40.8239 30.5173 40.9214 30.4984 41.0154C30.4752 41.1068 30.3827 41.0382 30.2439 41.0611H24.9458C24.5756 41.0611 24.3211 41.0382 24.1592 40.8096C23.6733 39.8495 23.1644 38.9122 22.6785 37.952C22.1927 36.9919 21.6605 36.0546 21.1053 35.0716C20.55 34.0885 19.9948 33.1055 19.4395 32.0996H19.3932C18.9074 33.0827 18.3753 34.0657 17.8431 35.0487C17.311 36.0317 16.7789 37.0147 16.2699 37.9749C15.7609 38.935 15.2057 39.918 14.6736 40.8553C14.581 41.0839 14.3959 41.1068 14.1414 41.1068H9.05158C8.95903 41.1068 8.88963 41.1525 8.88963 41.0382C8.8793 40.9954 8.87808 40.951 8.88605 40.9077C8.89401 40.8644 8.91099 40.8232 8.9359 40.7868L16.1311 29.1277L9.12098 17.4002C9.05158 17.3087 9.02844 17.2173 9.07471 17.1715C9.10292 17.139 9.1387 17.1136 9.179 17.0977C9.21929 17.0818 9.2629 17.0757 9.30607 17.0801H14.5579C14.6673 17.0825 14.7761 17.0978 14.8818 17.1258C14.9745 17.1751 15.0538 17.2457 15.1131 17.3316C15.5527 18.3146 16.0617 19.2976 16.5938 20.2806C17.1259 21.2636 17.6812 22.2238 18.2596 23.1839C18.838 24.1441 19.3238 25.1042 19.8097 26.0873H19.856C20.3418 25.0814 20.8508 24.0984 21.3598 23.1382C21.8688 22.1781 22.4009 21.2179 22.933 20.2578C23.4651 19.2976 23.9741 18.3146 24.4831 17.3773C24.5006 17.2873 24.5498 17.2063 24.6219 17.1487C24.7135 17.0987 24.8201 17.0825 24.9227 17.103H29.8043C29.8317 17.0969 29.8599 17.0962 29.8876 17.101C29.9152 17.1058 29.9416 17.1159 29.9652 17.1307C29.9888 17.1456 30.0093 17.1649 30.0254 17.1876C30.0414 17.2103 30.0528 17.2359 30.0588 17.263C30.0819 17.2859 30.0357 17.3773 29.9894 17.423ZM40.6781 41.5412C38.9632 41.569 37.2636 41.2175 35.7039 40.5124C34.2528 39.8419 33.0366 38.7595 32.2104 37.4034C31.3544 36.0088 30.938 34.2714 30.938 32.1911C30.9145 30.4993 31.3542 28.8327 32.2104 27.3675C33.0884 25.8783 34.3601 24.6534 35.889 23.824C37.5085 22.9325 39.4519 22.4981 41.7423 22.4981C41.9046 22.4963 42.0668 22.5039 42.2282 22.521C42.4364 22.5438 42.6678 22.5438 42.9454 22.5667V15.3427C42.9454 15.1827 43.0148 15.0912 43.1768 15.0912H47.8733C47.9252 15.0843 47.9778 15.0969 48.0206 15.1265C48.0635 15.1562 48.0935 15.2007 48.1047 15.2512V37.0604C48.1047 37.4719 48.1278 37.9292 48.1509 38.4321C48.1741 38.935 48.2203 39.3694 48.2435 39.758C48.2484 39.8352 48.2287 39.912 48.1873 39.9776C48.1458 40.0432 48.0845 40.0943 48.0121 40.1238C46.8003 40.627 45.5354 40.9951 44.241 41.2211C43.0651 41.4306 41.8729 41.5377 40.6781 41.5412ZM42.9454 36.969V26.9102C42.7394 26.8611 42.5309 26.823 42.3207 26.7959C42.0662 26.7731 41.8117 26.7502 41.5573 26.7502C40.6504 26.7401 39.7541 26.9439 38.9429 27.3446C38.1523 27.7339 37.4754 28.3162 36.9764 29.0363C36.4674 29.7678 36.2129 30.7509 36.2129 31.9396C36.1927 32.742 36.3262 33.5409 36.6062 34.2943C36.83 34.9036 37.1852 35.4574 37.6473 35.9174C38.0934 36.338 38.6318 36.651 39.2205 36.8318C39.8403 37.0324 40.4887 37.1328 41.1408 37.129C41.4878 37.129 41.8117 37.1062 42.1125 37.0833C42.3952 37.1032 42.6789 37.0643 42.9454 36.969Z" fill="#FF61F6"/>
<path d="M89.3669 53.5122C93.6707 53.5122 97.1645 50.0184 97.1645 45.7146V37.917H89.3669C85.0631 37.917 81.5693 41.4108 81.5693 45.7146C81.5693 50.0184 85.0631 53.5122 89.3669 53.5122Z" fill="#0ACF83"/>
<path d="M81.5615 30.1111C81.5615 25.8072 85.0553 22.3135 89.3591 22.3135H97.1567V37.9168H89.3591C85.0553 37.9168 81.5615 34.423 81.5615 30.1192V30.1111Z" fill="#A259FF"/>
<path d="M81.5615 14.5075C81.5615 10.2037 85.0553 6.70996 89.3591 6.70996H97.1567V22.3133H89.3591C85.0553 22.3133 81.5615 18.8195 81.5615 14.5157V14.5075Z" fill="#F24E1E"/>
<path d="M97.0908 6.70996H104.888C109.192 6.70996 112.686 10.2037 112.686 14.5075C112.686 18.8113 109.192 22.3051 104.888 22.3051H97.0908V6.70996Z" fill="#FF7262"/>
<path d="M112.768 30.1111C112.768 34.4149 109.274 37.9087 104.97 37.9087C100.666 37.9087 97.0908 34.4149 97.0908 30.1111C97.0908 25.8073 100.585 22.3135 104.888 22.3135C109.192 22.3135 112.686 25.8073 112.686 30.1111H112.768Z" fill="#1ABCFE"/>
<path d="M121.294 19.6377V35.9856H123.397V28.1799H128.453V26.1507H123.397V21.6832H129.967V19.6377H121.294ZM133.772 22.9596C134.533 22.9596 135.146 22.346 135.146 21.585C135.146 20.8241 134.525 20.2923 133.772 20.2923C133.019 20.2923 132.397 20.9059 132.397 21.6669C132.397 22.0351 132.544 22.3787 132.806 22.6487C133.068 22.9187 133.412 23.0578 133.788 23.0578L133.772 22.9596ZM132.708 25.0215V35.9856H134.729V25.0215H132.643H132.708ZM142.625 24.6943C139.827 24.6943 137.879 27.1489 137.879 29.8654C137.879 32.5818 139.843 35.0201 142.625 35.0201C143.204 35.0303 143.778 34.9198 144.312 34.6959C144.846 34.4719 145.328 34.1393 145.726 33.7192V35.1756C145.72 36.0506 145.381 36.8905 144.777 37.5239C144.472 37.8351 144.108 38.0822 143.706 38.2508C143.304 38.4194 142.872 38.5061 142.437 38.5057C141.768 38.4846 141.119 38.2684 140.571 37.8839L139.507 39.7085C140.324 40.2338 141.268 40.5291 142.238 40.5633C143.209 40.5976 144.171 40.3694 145.023 39.9029C145.874 39.4363 146.585 38.7487 147.078 37.9125C147.572 37.0762 147.831 36.1222 147.829 35.151V25.0052H145.726V25.987C145.328 25.5669 144.846 25.2343 144.312 25.0103C143.778 24.7864 143.204 24.6759 142.625 24.6861V24.6943ZM139.99 29.8654C139.942 29.3334 140.044 28.7987 140.284 28.3215C140.524 27.8444 140.893 27.4439 141.348 27.1653C142.281 26.5925 143.451 26.5925 144.376 27.1653C145.3 27.738 145.824 28.7853 145.734 29.8654C145.782 30.3973 145.68 30.9321 145.44 31.4092C145.2 31.8863 144.831 32.2868 144.376 32.5655C143.443 33.1382 142.273 33.1382 141.348 32.5655C140.424 31.9927 139.9 30.9454 139.99 29.8654Z" fill="black"/>
<path d="M155.413 26.8382C154.808 26.8403 154.229 27.0815 153.801 27.5092C153.374 27.9368 153.132 28.5162 153.13 29.121V36.0594H151.027V25.0954H153.13V26.0199C153.768 25.169 154.783 24.6781 155.847 24.6944C157.189 24.6617 158.44 25.3817 159.103 26.5518C159.921 25.4063 161.1 24.7108 162.376 24.6944C164.773 24.6944 166.263 26.6254 166.271 29.0146V35.994H164.168V29.0391C164.23 28.6059 164.166 28.1641 163.984 27.7659C163.803 27.3678 163.511 27.03 163.143 26.7924C162.776 26.5549 162.348 26.4275 161.91 26.4255C161.473 26.4235 161.044 26.5468 160.674 26.7809C160.306 27.0206 160.015 27.3608 159.836 27.7612C159.656 28.1615 159.595 28.6051 159.66 29.0391V35.9776H157.639V29.0473C157.636 28.4426 157.395 27.8632 156.968 27.4355C156.54 27.0079 155.961 26.7667 155.356 26.7645L155.413 26.8382ZM177.505 26.2654C177.026 25.766 176.45 25.3697 175.813 25.1009C175.176 24.8322 174.49 24.6966 173.798 24.7026C170.665 24.7026 168.48 27.3536 168.48 30.4301C168.48 33.5066 170.689 36.1576 173.798 36.1576C174.49 36.1636 175.176 36.028 175.813 35.7593C176.45 35.4905 177.026 35.0943 177.505 34.5948V35.8385H179.608V24.8744H177.505V26.2654ZM170.55 30.5201C170.444 29.211 171.082 27.9509 172.203 27.2636C173.324 26.5763 174.657 26.5763 175.852 27.2636C176.399 27.6032 176.843 28.0864 177.134 28.6606C177.425 29.2349 177.554 29.878 177.505 30.5201C177.611 31.8293 176.973 33.0893 175.852 33.7766C174.731 34.4639 173.397 34.4639 172.203 33.7766C171.656 33.437 171.212 32.9538 170.921 32.3796C170.629 31.8054 170.501 31.1622 170.55 30.5201Z" fill="black"/>
</svg>
